M48
INCH,LZ
;FILE_FORMAT=2:4
;TYPE=PLATED
;Layer: PTH_Through
;EasyEDA v6.5.1, 2022-06-12 07:01:07
;a67cddfb3fce44daa9051d46cbbcc19f,10
;Gerber Generator version 0.2
;Holesize 1 = 0.0120 inch
T01C0.0120
;Holesize 2 = 0.0350 inch
T02C0.0350
;Holesize 3 = 0.0400 inch
T03C0.0400
%
G05
G90
T01
X027600Y002400
X036000Y024500
X037000Y024500
X038000Y024500
X036500Y024500
X037500Y024500
X003500Y018500
X005000Y017500
X012000Y018500
X003250Y006500
X010750Y006500
X003250Y011500
X008750Y011500
X003250Y016500
X008750Y022500
X003250Y021500
T02
X022000Y004500
X022000Y005500
X022000Y006500
X022000Y007500
X022000Y008500
X022000Y009500
X022000Y010500
X022000Y011500
X022000Y012500
X022000Y013500
X022000Y014500
X022000Y015500
X022000Y016500
X022000Y017500
X022000Y018500
X022000Y019500
X022000Y020500
X022000Y021500
X022000Y022500
X022000Y023500
X021000Y004500
X021000Y005500
X021000Y006500
X021000Y007500
X021000Y008500
X021000Y009500
X021000Y010500
X021000Y011500
X021000Y012500
X021000Y013500
X021000Y014500
X021000Y015500
X021000Y016500
X021000Y017500
X021000Y018500
X021000Y019500
X021000Y020500
X021000Y021500
X021000Y022500
X021000Y023500
X020000Y004500
X020000Y005500
X020000Y006500
X020000Y007500
X020000Y008500
X020000Y009500
X020000Y010500
X020000Y011500
X020000Y012500
X020000Y013500
X020000Y014500
X020000Y015500
X020000Y016500
X020000Y017500
X020000Y018500
X020000Y019500
X020000Y020500
X020000Y021500
X020000Y022500
X020000Y023500
X019000Y004500
X019000Y005500
X019000Y006500
X019000Y007500
X019000Y008500
X019000Y009500
X019000Y010500
X019000Y011500
X019000Y012500
X019000Y013500
X019000Y014500
X019000Y015500
X019000Y016500
X019000Y017500
X019000Y018500
X019000Y019500
X019000Y020500
X019000Y021500
X019000Y022500
X019000Y023500
X018000Y004500
X018000Y005500
X018000Y006500
X018000Y007500
X018000Y008500
X018000Y009500
X018000Y010500
X018000Y011500
X018000Y012500
X018000Y013500
X018000Y014500
X018000Y015500
X018000Y016500
X018000Y017500
X018000Y018500
X018000Y019500
X018000Y020500
X018000Y021500
X018000Y022500
X018000Y023500
X017000Y004500
X017000Y005500
X017000Y006500
X017000Y007500
X017000Y008500
X017000Y009500
X017000Y010500
X017000Y011500
X017000Y012500
X017000Y013500
X017000Y014500
X017000Y015500
X017000Y016500
X017000Y017500
X017000Y018500
X017000Y019500
X017000Y020500
X017000Y021500
X017000Y022500
X017000Y023500
X016000Y004500
X016000Y005500
X016000Y006500
X016000Y007500
X016000Y008500
X016000Y009500
X016000Y010500
X016000Y011500
X016000Y012500
X016000Y013500
X016000Y014500
X016000Y015500
X016000Y016500
X016000Y017500
X016000Y018500
X016000Y019500
X016000Y020500
X016000Y021500
X016000Y022500
X016000Y023500
X015000Y004500
X015000Y005500
X015000Y006500
X015000Y007500
X015000Y008500
X015000Y009500
X015000Y010500
X015000Y011500
X015000Y012500
X015000Y013500
X015000Y014500
X015000Y015500
X015000Y016500
X015000Y017500
X015000Y018500
X015000Y019500
X015000Y020500
X015000Y021500
X015000Y022500
X015000Y023500
X014000Y004500
X014000Y005500
X014000Y006500
X014000Y007500
X014000Y008500
X014000Y009500
X014000Y010500
X014000Y011500
X014000Y012500
X014000Y013500
X014000Y014500
X014000Y015500
X014000Y016500
X014000Y017500
X014000Y018500
X014000Y019500
X014000Y020500
X014000Y021500
X014000Y022500
X014000Y023500
X013000Y004500
X013000Y005500
X013000Y006500
X013000Y007500
X013000Y008500
X013000Y009500
X013000Y010500
X013000Y011500
X013000Y012500
X013000Y013500
X013000Y014500
X013000Y015500
X013000Y016500
X013000Y017500
X013000Y018500
X013000Y019500
X013000Y020500
X013000Y021500
X013000Y022500
X013000Y023500
X036000Y004500
X036000Y005500
X036000Y006500
X036000Y007500
X036000Y008500
X036000Y009500
X036000Y010500
X036000Y011500
X036000Y012500
X036000Y013500
X036000Y014500
X036000Y015500
X036000Y016500
X036000Y017500
X036000Y018500
X036000Y019500
X036000Y020500
X036000Y021500
X036000Y022500
X036000Y023500
X037000Y004500
X037000Y005500
X037000Y006500
X037000Y007500
X037000Y008500
X037000Y009500
X037000Y010500
X037000Y011500
X037000Y012500
X037000Y013500
X037000Y014500
X037000Y015500
X037000Y016500
X037000Y017500
X037000Y018500
X037000Y019500
X037000Y020500
X037000Y021500
X037000Y022500
X037000Y023500
X038000Y004500
X038000Y005500
X038000Y006500
X038000Y007500
X038000Y008500
X038000Y009500
X038000Y010500
X038000Y011500
X038000Y012500
X038000Y013500
X038000Y014500
X038000Y015500
X038000Y016500
X038000Y017500
X038000Y018500
X038000Y019500
X038000Y020500
X038000Y021500
X038000Y022500
X038000Y023500
X039000Y004500
X039000Y005500
X039000Y006500
X039000Y007500
X039000Y008500
X039000Y009500
X039000Y010500
X039000Y011500
X039000Y012500
X039000Y013500
X039000Y014500
X039000Y015500
X039000Y016500
X039000Y017500
X039000Y018500
X039000Y019500
X039000Y020500
X039000Y021500
X039000Y022500
X039000Y023500
X040000Y004500
X040000Y005500
X040000Y006500
X040000Y007500
X040000Y008500
X040000Y009500
X040000Y010500
X040000Y011500
X040000Y012500
X040000Y013500
X040000Y014500
X040000Y015500
X040000Y016500
X040000Y017500
X040000Y018500
X040000Y019500
X040000Y020500
X040000Y021500
X040000Y022500
X040000Y023500
X041000Y004500
X041000Y005500
X041000Y006500
X041000Y007500
X041000Y008500
X041000Y009500
X041000Y010500
X041000Y011500
X041000Y012500
X041000Y013500
X041000Y014500
X041000Y015500
X041000Y016500
X041000Y017500
X041000Y018500
X041000Y019500
X041000Y020500
X041000Y021500
X041000Y022500
X041000Y023500
X042000Y004500
X042000Y005500
X042000Y006500
X042000Y007500
X042000Y008500
X042000Y009500
X042000Y010500
X042000Y011500
X042000Y012500
X042000Y013500
X042000Y014500
X042000Y015500
X042000Y016500
X042000Y017500
X042000Y018500
X042000Y019500
X042000Y020500
X042000Y021500
X042000Y022500
X042000Y023500
X043000Y004500
X043000Y005500
X043000Y006500
X043000Y007500
X043000Y008500
X043000Y009500
X043000Y010500
X043000Y011500
X043000Y012500
X043000Y013500
X043000Y014500
X043000Y015500
X043000Y016500
X043000Y017500
X043000Y018500
X043000Y019500
X043000Y020500
X043000Y021500
X043000Y022500
X043000Y023500
X044000Y004500
X044000Y005500
X044000Y006500
X044000Y007500
X044000Y008500
X044000Y009500
X044000Y010500
X044000Y011500
X044000Y012500
X044000Y013500
X044000Y014500
X044000Y015500
X044000Y016500
X044000Y017500
X044000Y018500
X044000Y019500
X044000Y020500
X044000Y021500
X044000Y022500
X044000Y023500
X045000Y004500
X045000Y005500
X045000Y006500
X045000Y007500
X045000Y008500
X045000Y009500
X045000Y010500
X045000Y011500
X045000Y012500
X045000Y013500
X045000Y014500
X045000Y015500
X045000Y016500
X045000Y017500
X045000Y018500
X045000Y019500
X045000Y020500
X045000Y021500
X045000Y022500
X045000Y023500
T03
X025499Y023500G85X025501Y023500
X025499Y022500G85X025501Y022500
X025499Y021500G85X025501Y021500
X025499Y020500G85X025501Y020500
X025499Y019500G85X025501Y019500
X025499Y018500G85X025501Y018500
X025499Y017500G85X025501Y017500
X025499Y016500G85X025501Y016500
X025499Y015500G85X025501Y015500
X025499Y014500G85X025501Y014500
X025499Y013500G85X025501Y013500
X025499Y012500G85X025501Y012500
X025499Y011500G85X025501Y011500
X025499Y010500G85X025501Y010500
X025499Y009500G85X025501Y009500
X025499Y008500G85X025501Y008500
X025499Y007500G85X025501Y007500
X025499Y006500G85X025501Y006500
X025499Y005500G85X025501Y005500
X025499Y004500G85X025501Y004500
X032499Y004500G85X032501Y004500
X032499Y005500G85X032501Y005500
X032499Y006500G85X032501Y006500
X032499Y007500G85X032501Y007500
X032499Y008500G85X032501Y008500
X032499Y009500G85X032501Y009500
X032499Y010500G85X032501Y010500
X032499Y011500G85X032501Y011500
X032499Y012500G85X032501Y012500
X032499Y013500G85X032501Y013500
X032499Y014500G85X032501Y014500
X032499Y015500G85X032501Y015500
X032499Y016500G85X032501Y016500
X032499Y017500G85X032501Y017500
X032499Y018500G85X032501Y018500
X032499Y019500G85X032501Y019500
X032499Y020500G85X032501Y020500
X032499Y021500G85X032501Y021500
X032499Y022500G85X032501Y022500
X032499Y023500G85X032501Y023500
X027999Y004591G85X028001Y004591
X028999Y004591G85X029001Y004591
X029999Y004591G85X030001Y004591
M30
