G04 Layer: TopPasteMaskLayer*
G04 EasyEDA v6.5.1, 2022-06-12 07:01:07*
G04 a67cddfb3fce44daa9051d46cbbcc19f,10*
G04 Gerber Generator version 0.2*
G04 Scale: 100 percent, Rotated: No, Reflected: No *
G04 Dimensions in inches *
G04 leading zeros omitted , absolute positions ,3 integer and 6 decimal *
%FSLAX36Y36*%
%MOIN*%

%ADD14R,0.0669X0.1378*%

%LPD*%
G36*
X2461104Y2383465D02*
G01*
X2598895Y2383465D01*
X2598895Y2316534D01*
X2461104Y2316534D01*
G37*
G36*
X2461104Y2283465D02*
G01*
X2598895Y2283465D01*
X2598895Y2216534D01*
X2461104Y2216534D01*
G37*
G36*
X2461104Y2183465D02*
G01*
X2598895Y2183465D01*
X2598895Y2116534D01*
X2461104Y2116534D01*
G37*
G36*
X2461104Y2083465D02*
G01*
X2598895Y2083465D01*
X2598895Y2016534D01*
X2461104Y2016534D01*
G37*
G36*
X2461104Y1983465D02*
G01*
X2598895Y1983465D01*
X2598895Y1916534D01*
X2461104Y1916534D01*
G37*
G36*
X2461104Y1883465D02*
G01*
X2598895Y1883465D01*
X2598895Y1816534D01*
X2461104Y1816534D01*
G37*
G36*
X2461104Y1783465D02*
G01*
X2598895Y1783465D01*
X2598895Y1716534D01*
X2461104Y1716534D01*
G37*
G36*
X2461104Y1683465D02*
G01*
X2598895Y1683465D01*
X2598895Y1616534D01*
X2461104Y1616534D01*
G37*
G36*
X2461104Y1583465D02*
G01*
X2598895Y1583465D01*
X2598895Y1516534D01*
X2461104Y1516534D01*
G37*
G36*
X2461104Y1483465D02*
G01*
X2598895Y1483465D01*
X2598895Y1416534D01*
X2461104Y1416534D01*
G37*
G36*
X2461104Y1383465D02*
G01*
X2598895Y1383465D01*
X2598895Y1316534D01*
X2461104Y1316534D01*
G37*
G36*
X2461104Y1283465D02*
G01*
X2598895Y1283465D01*
X2598895Y1216534D01*
X2461104Y1216534D01*
G37*
G36*
X2461104Y1183465D02*
G01*
X2598895Y1183465D01*
X2598895Y1116534D01*
X2461104Y1116534D01*
G37*
G36*
X2461104Y1083465D02*
G01*
X2598895Y1083465D01*
X2598895Y1016534D01*
X2461104Y1016534D01*
G37*
G36*
X2461104Y983465D02*
G01*
X2598895Y983465D01*
X2598895Y916534D01*
X2461104Y916534D01*
G37*
G36*
X2461104Y883465D02*
G01*
X2598895Y883465D01*
X2598895Y816534D01*
X2461104Y816534D01*
G37*
G36*
X2461104Y783465D02*
G01*
X2598895Y783465D01*
X2598895Y716534D01*
X2461104Y716534D01*
G37*
G36*
X2461104Y683465D02*
G01*
X2598895Y683465D01*
X2598895Y616534D01*
X2461104Y616534D01*
G37*
G36*
X2461104Y583465D02*
G01*
X2598895Y583465D01*
X2598895Y516534D01*
X2461104Y516534D01*
G37*
G36*
X2461104Y483465D02*
G01*
X2598895Y483465D01*
X2598895Y416534D01*
X2461104Y416534D01*
G37*
G36*
X3201104Y2383465D02*
G01*
X3338895Y2383465D01*
X3338895Y2316534D01*
X3201104Y2316534D01*
G37*
G36*
X3201104Y2283465D02*
G01*
X3338895Y2283465D01*
X3338895Y2216534D01*
X3201104Y2216534D01*
G37*
G36*
X3201104Y2183465D02*
G01*
X3338895Y2183465D01*
X3338895Y2116534D01*
X3201104Y2116534D01*
G37*
G36*
X3201104Y2083465D02*
G01*
X3338895Y2083465D01*
X3338895Y2016534D01*
X3201104Y2016534D01*
G37*
G36*
X3201104Y1983465D02*
G01*
X3338895Y1983465D01*
X3338895Y1916534D01*
X3201104Y1916534D01*
G37*
G36*
X3201104Y1883465D02*
G01*
X3338895Y1883465D01*
X3338895Y1816534D01*
X3201104Y1816534D01*
G37*
G36*
X3201104Y1783465D02*
G01*
X3338895Y1783465D01*
X3338895Y1716534D01*
X3201104Y1716534D01*
G37*
G36*
X3201104Y1683465D02*
G01*
X3338895Y1683465D01*
X3338895Y1616534D01*
X3201104Y1616534D01*
G37*
G36*
X3201104Y1583465D02*
G01*
X3338895Y1583465D01*
X3338895Y1516534D01*
X3201104Y1516534D01*
G37*
G36*
X3201104Y1483465D02*
G01*
X3338895Y1483465D01*
X3338895Y1416534D01*
X3201104Y1416534D01*
G37*
G36*
X3201104Y1383465D02*
G01*
X3338895Y1383465D01*
X3338895Y1316534D01*
X3201104Y1316534D01*
G37*
G36*
X3201104Y1283465D02*
G01*
X3338895Y1283465D01*
X3338895Y1216534D01*
X3201104Y1216534D01*
G37*
G36*
X3201104Y1183465D02*
G01*
X3338895Y1183465D01*
X3338895Y1116534D01*
X3201104Y1116534D01*
G37*
G36*
X3201104Y1083465D02*
G01*
X3338895Y1083465D01*
X3338895Y1016534D01*
X3201104Y1016534D01*
G37*
G36*
X3201104Y983465D02*
G01*
X3338895Y983465D01*
X3338895Y916534D01*
X3201104Y916534D01*
G37*
G36*
X3201104Y883465D02*
G01*
X3338895Y883465D01*
X3338895Y816534D01*
X3201104Y816534D01*
G37*
G36*
X3201104Y783465D02*
G01*
X3338895Y783465D01*
X3338895Y716534D01*
X3201104Y716534D01*
G37*
G36*
X3201104Y683465D02*
G01*
X3338895Y683465D01*
X3338895Y616534D01*
X3201104Y616534D01*
G37*
G36*
X3201104Y583465D02*
G01*
X3338895Y583465D01*
X3338895Y516534D01*
X3201104Y516534D01*
G37*
G36*
X3201104Y483465D02*
G01*
X3338895Y483465D01*
X3338895Y416534D01*
X3201104Y416534D01*
G37*
D14*
G01*
X2800000Y439059D03*
G01*
X2900000Y439059D03*
G01*
X3000000Y439059D03*
G36*
X943500Y2318499D02*
G01*
X939709Y2318730D01*
X935969Y2319420D01*
X932330Y2320549D01*
X928869Y2322109D01*
X925609Y2324079D01*
X922619Y2326419D01*
X919930Y2329109D01*
X917579Y2332109D01*
X915609Y2335359D01*
X914049Y2338829D01*
X912920Y2342460D01*
X912240Y2346199D01*
X912010Y2350000D01*
X912240Y2353789D01*
X912920Y2357539D01*
X914049Y2361170D01*
X915609Y2364640D01*
X917579Y2367890D01*
X919930Y2370880D01*
X922619Y2373569D01*
X925609Y2375920D01*
X928869Y2377890D01*
X932330Y2379450D01*
X935969Y2380580D01*
X939709Y2381260D01*
X943500Y2381489D01*
X1006499Y2381489D01*
X1010290Y2381260D01*
X1014030Y2380580D01*
X1017659Y2379450D01*
X1021130Y2377890D01*
X1024390Y2375920D01*
X1027380Y2373569D01*
X1030069Y2370880D01*
X1032420Y2367890D01*
X1034380Y2364640D01*
X1035940Y2361170D01*
X1037079Y2357539D01*
X1037759Y2353789D01*
X1037989Y2350000D01*
X1037759Y2346199D01*
X1037079Y2342460D01*
X1035940Y2338829D01*
X1034380Y2335359D01*
X1032420Y2332109D01*
X1030069Y2329109D01*
X1027380Y2326419D01*
X1024390Y2324079D01*
X1021130Y2322109D01*
X1017659Y2320549D01*
X1014030Y2319420D01*
X1010290Y2318730D01*
X1006499Y2318499D01*
G37*
G36*
X943500Y2218499D02*
G01*
X939709Y2218730D01*
X935969Y2219420D01*
X932330Y2220549D01*
X928869Y2222109D01*
X925609Y2224079D01*
X922619Y2226419D01*
X919930Y2229109D01*
X917579Y2232109D01*
X915609Y2235359D01*
X914049Y2238829D01*
X912920Y2242460D01*
X912240Y2246199D01*
X912010Y2250000D01*
X912240Y2253789D01*
X912920Y2257539D01*
X914049Y2261170D01*
X915609Y2264640D01*
X917579Y2267890D01*
X919930Y2270880D01*
X922619Y2273569D01*
X925609Y2275920D01*
X928869Y2277890D01*
X932330Y2279450D01*
X935969Y2280580D01*
X939709Y2281260D01*
X943500Y2281489D01*
X1006499Y2281489D01*
X1010290Y2281260D01*
X1014030Y2280580D01*
X1017659Y2279450D01*
X1021130Y2277890D01*
X1024390Y2275920D01*
X1027380Y2273569D01*
X1030069Y2270880D01*
X1032420Y2267890D01*
X1034380Y2264640D01*
X1035940Y2261170D01*
X1037079Y2257539D01*
X1037759Y2253789D01*
X1037989Y2250000D01*
X1037759Y2246199D01*
X1037079Y2242460D01*
X1035940Y2238829D01*
X1034380Y2235359D01*
X1032420Y2232109D01*
X1030069Y2229109D01*
X1027380Y2226419D01*
X1024390Y2224079D01*
X1021130Y2222109D01*
X1017659Y2220549D01*
X1014030Y2219420D01*
X1010290Y2218730D01*
X1006499Y2218499D01*
G37*
G36*
X912010Y2118499D02*
G01*
X912010Y2181489D01*
X1037989Y2181489D01*
X1037989Y2118499D01*
G37*
G36*
X943500Y2018499D02*
G01*
X939709Y2018730D01*
X935969Y2019420D01*
X932330Y2020549D01*
X928869Y2022109D01*
X925609Y2024079D01*
X922619Y2026419D01*
X919930Y2029109D01*
X917579Y2032109D01*
X915609Y2035359D01*
X914049Y2038829D01*
X912920Y2042460D01*
X912240Y2046199D01*
X912010Y2050000D01*
X912240Y2053800D01*
X912920Y2057539D01*
X914049Y2061170D01*
X915609Y2064640D01*
X917579Y2067890D01*
X919930Y2070880D01*
X922619Y2073569D01*
X925609Y2075920D01*
X928869Y2077890D01*
X932330Y2079450D01*
X935969Y2080580D01*
X939709Y2081269D01*
X943500Y2081489D01*
X1006499Y2081489D01*
X1010290Y2081269D01*
X1014030Y2080580D01*
X1017659Y2079450D01*
X1021130Y2077890D01*
X1024390Y2075920D01*
X1027380Y2073569D01*
X1030069Y2070880D01*
X1032420Y2067890D01*
X1034380Y2064640D01*
X1035940Y2061170D01*
X1037079Y2057539D01*
X1037759Y2053800D01*
X1037989Y2050000D01*
X1037759Y2046199D01*
X1037079Y2042460D01*
X1035940Y2038829D01*
X1034380Y2035359D01*
X1032420Y2032109D01*
X1030069Y2029109D01*
X1027380Y2026419D01*
X1024390Y2024079D01*
X1021130Y2022109D01*
X1017659Y2020549D01*
X1014030Y2019420D01*
X1010290Y2018730D01*
X1006499Y2018499D01*
G37*
G36*
X943500Y1918499D02*
G01*
X939709Y1918730D01*
X935969Y1919420D01*
X932330Y1920549D01*
X928869Y1922109D01*
X925609Y1924079D01*
X922619Y1926419D01*
X919930Y1929109D01*
X917579Y1932109D01*
X915609Y1935359D01*
X914049Y1938829D01*
X912920Y1942460D01*
X912240Y1946199D01*
X912010Y1950000D01*
X912240Y1953800D01*
X912920Y1957539D01*
X914049Y1961170D01*
X915609Y1964640D01*
X917579Y1967890D01*
X919930Y1970880D01*
X922619Y1973569D01*
X925609Y1975920D01*
X928869Y1977890D01*
X932330Y1979450D01*
X935969Y1980580D01*
X939709Y1981269D01*
X943500Y1981489D01*
X1006499Y1981489D01*
X1010290Y1981269D01*
X1014030Y1980580D01*
X1017659Y1979450D01*
X1021130Y1977890D01*
X1024390Y1975920D01*
X1027380Y1973569D01*
X1030069Y1970880D01*
X1032420Y1967890D01*
X1034380Y1964640D01*
X1035940Y1961170D01*
X1037079Y1957539D01*
X1037759Y1953800D01*
X1037989Y1950000D01*
X1037759Y1946199D01*
X1037079Y1942460D01*
X1035940Y1938829D01*
X1034380Y1935359D01*
X1032420Y1932109D01*
X1030069Y1929109D01*
X1027380Y1926419D01*
X1024390Y1924079D01*
X1021130Y1922109D01*
X1017659Y1920549D01*
X1014030Y1919420D01*
X1010290Y1918730D01*
X1006499Y1918499D01*
G37*
G36*
X943500Y1818499D02*
G01*
X939709Y1818730D01*
X935969Y1819420D01*
X932330Y1820549D01*
X928869Y1822109D01*
X925609Y1824079D01*
X922619Y1826419D01*
X919930Y1829109D01*
X917579Y1832109D01*
X915609Y1835359D01*
X914049Y1838829D01*
X912920Y1842460D01*
X912240Y1846199D01*
X912010Y1850000D01*
X912240Y1853800D01*
X912920Y1857539D01*
X914049Y1861170D01*
X915609Y1864640D01*
X917579Y1867890D01*
X919930Y1870880D01*
X922619Y1873569D01*
X925609Y1875920D01*
X928869Y1877890D01*
X932330Y1879450D01*
X935969Y1880580D01*
X939709Y1881269D01*
X943500Y1881500D01*
X1006499Y1881500D01*
X1010290Y1881269D01*
X1014030Y1880580D01*
X1017659Y1879450D01*
X1021130Y1877890D01*
X1024390Y1875920D01*
X1027380Y1873569D01*
X1030069Y1870880D01*
X1032420Y1867890D01*
X1034380Y1864640D01*
X1035940Y1861170D01*
X1037079Y1857539D01*
X1037759Y1853800D01*
X1037989Y1850000D01*
X1037759Y1846199D01*
X1037079Y1842460D01*
X1035940Y1838829D01*
X1034380Y1835359D01*
X1032420Y1832109D01*
X1030069Y1829109D01*
X1027380Y1826419D01*
X1024390Y1824079D01*
X1021130Y1822109D01*
X1017659Y1820549D01*
X1014030Y1819420D01*
X1010290Y1818730D01*
X1006499Y1818499D01*
G37*
G36*
X943500Y1718499D02*
G01*
X939709Y1718730D01*
X935969Y1719420D01*
X932330Y1720549D01*
X928869Y1722109D01*
X925609Y1724079D01*
X922619Y1726419D01*
X919930Y1729109D01*
X917579Y1732109D01*
X915609Y1735359D01*
X914049Y1738829D01*
X912920Y1742460D01*
X912240Y1746199D01*
X912010Y1750000D01*
X912240Y1753800D01*
X912920Y1757539D01*
X914049Y1761170D01*
X915609Y1764640D01*
X917579Y1767890D01*
X919930Y1770890D01*
X922619Y1773569D01*
X925609Y1775920D01*
X928869Y1777890D01*
X932330Y1779450D01*
X935969Y1780580D01*
X939709Y1781269D01*
X943500Y1781500D01*
X1006499Y1781500D01*
X1010290Y1781269D01*
X1014030Y1780580D01*
X1017659Y1779450D01*
X1021130Y1777890D01*
X1024390Y1775920D01*
X1027380Y1773569D01*
X1030069Y1770890D01*
X1032420Y1767890D01*
X1034380Y1764640D01*
X1035940Y1761170D01*
X1037079Y1757539D01*
X1037759Y1753800D01*
X1037989Y1750000D01*
X1037759Y1746199D01*
X1037079Y1742460D01*
X1035940Y1738829D01*
X1034380Y1735359D01*
X1032420Y1732109D01*
X1030069Y1729109D01*
X1027380Y1726419D01*
X1024390Y1724079D01*
X1021130Y1722109D01*
X1017659Y1720549D01*
X1014030Y1719420D01*
X1010290Y1718730D01*
X1006499Y1718499D01*
G37*
G36*
X912010Y1618499D02*
G01*
X912010Y1681500D01*
X1037989Y1681500D01*
X1037989Y1618499D01*
G37*
G36*
X943500Y1518499D02*
G01*
X939709Y1518730D01*
X935969Y1519420D01*
X932330Y1520549D01*
X928869Y1522109D01*
X925609Y1524079D01*
X922619Y1526419D01*
X919930Y1529109D01*
X917579Y1532109D01*
X915609Y1535359D01*
X914049Y1538829D01*
X912920Y1542460D01*
X912240Y1546199D01*
X912010Y1550000D01*
X912240Y1553800D01*
X912920Y1557539D01*
X914049Y1561170D01*
X915609Y1564640D01*
X917579Y1567890D01*
X919930Y1570890D01*
X922619Y1573569D01*
X925609Y1575920D01*
X928869Y1577890D01*
X932330Y1579450D01*
X935969Y1580580D01*
X939709Y1581269D01*
X943500Y1581500D01*
X1006499Y1581500D01*
X1010290Y1581269D01*
X1014030Y1580580D01*
X1017659Y1579450D01*
X1021130Y1577890D01*
X1024390Y1575920D01*
X1027380Y1573569D01*
X1030069Y1570890D01*
X1032420Y1567890D01*
X1034380Y1564640D01*
X1035940Y1561170D01*
X1037079Y1557539D01*
X1037759Y1553800D01*
X1037989Y1550000D01*
X1037759Y1546199D01*
X1037079Y1542460D01*
X1035940Y1538829D01*
X1034380Y1535359D01*
X1032420Y1532109D01*
X1030069Y1529109D01*
X1027380Y1526419D01*
X1024390Y1524079D01*
X1021130Y1522109D01*
X1017659Y1520549D01*
X1014030Y1519420D01*
X1010290Y1518730D01*
X1006499Y1518499D01*
G37*
G36*
X943500Y1418499D02*
G01*
X939709Y1418730D01*
X935969Y1419420D01*
X932330Y1420549D01*
X928869Y1422109D01*
X925609Y1424079D01*
X922619Y1426419D01*
X919930Y1429109D01*
X917579Y1432109D01*
X915609Y1435359D01*
X914049Y1438829D01*
X912920Y1442460D01*
X912240Y1446199D01*
X912010Y1450000D01*
X912240Y1453800D01*
X912920Y1457539D01*
X914049Y1461170D01*
X915609Y1464640D01*
X917579Y1467890D01*
X919930Y1470890D01*
X922619Y1473569D01*
X925609Y1475920D01*
X928869Y1477890D01*
X932330Y1479450D01*
X935969Y1480580D01*
X939709Y1481269D01*
X943500Y1481500D01*
X1006499Y1481500D01*
X1010290Y1481269D01*
X1014030Y1480580D01*
X1017659Y1479450D01*
X1021130Y1477890D01*
X1024390Y1475920D01*
X1027380Y1473569D01*
X1030069Y1470890D01*
X1032420Y1467890D01*
X1034380Y1464640D01*
X1035940Y1461170D01*
X1037079Y1457539D01*
X1037759Y1453800D01*
X1037989Y1450000D01*
X1037759Y1446199D01*
X1037079Y1442460D01*
X1035940Y1438829D01*
X1034380Y1435359D01*
X1032420Y1432109D01*
X1030069Y1429109D01*
X1027380Y1426419D01*
X1024390Y1424079D01*
X1021130Y1422109D01*
X1017659Y1420549D01*
X1014030Y1419420D01*
X1010290Y1418730D01*
X1006499Y1418499D01*
G37*
G36*
X943500Y1318499D02*
G01*
X939709Y1318730D01*
X935969Y1319420D01*
X932330Y1320549D01*
X928869Y1322109D01*
X925609Y1324079D01*
X922619Y1326430D01*
X919930Y1329109D01*
X917579Y1332109D01*
X915609Y1335359D01*
X914049Y1338829D01*
X912920Y1342460D01*
X912240Y1346199D01*
X912010Y1350000D01*
X912240Y1353800D01*
X912920Y1357539D01*
X914049Y1361170D01*
X915609Y1364640D01*
X917579Y1367890D01*
X919930Y1370890D01*
X922619Y1373580D01*
X925609Y1375920D01*
X928869Y1377890D01*
X932330Y1379450D01*
X935969Y1380580D01*
X939709Y1381269D01*
X943500Y1381500D01*
X1006499Y1381500D01*
X1010290Y1381269D01*
X1014030Y1380580D01*
X1017659Y1379450D01*
X1021130Y1377890D01*
X1024390Y1375920D01*
X1027380Y1373580D01*
X1030069Y1370890D01*
X1032420Y1367890D01*
X1034380Y1364640D01*
X1035940Y1361170D01*
X1037079Y1357539D01*
X1037759Y1353800D01*
X1037989Y1350000D01*
X1037759Y1346199D01*
X1037079Y1342460D01*
X1035940Y1338829D01*
X1034380Y1335359D01*
X1032420Y1332109D01*
X1030069Y1329109D01*
X1027380Y1326430D01*
X1024390Y1324079D01*
X1021130Y1322109D01*
X1017659Y1320549D01*
X1014030Y1319420D01*
X1010290Y1318730D01*
X1006499Y1318499D01*
G37*
G36*
X943500Y1218499D02*
G01*
X939709Y1218730D01*
X935969Y1219420D01*
X932330Y1220549D01*
X928869Y1222109D01*
X925609Y1224079D01*
X922619Y1226430D01*
X919930Y1229109D01*
X917579Y1232109D01*
X915609Y1235359D01*
X914049Y1238829D01*
X912920Y1242460D01*
X912240Y1246199D01*
X912010Y1250000D01*
X912240Y1253800D01*
X912920Y1257539D01*
X914049Y1261170D01*
X915609Y1264640D01*
X917579Y1267890D01*
X919930Y1270890D01*
X922619Y1273580D01*
X925609Y1275920D01*
X928869Y1277890D01*
X932330Y1279450D01*
X935969Y1280580D01*
X939709Y1281269D01*
X943500Y1281500D01*
X1006499Y1281500D01*
X1010290Y1281269D01*
X1014030Y1280580D01*
X1017659Y1279450D01*
X1021130Y1277890D01*
X1024390Y1275920D01*
X1027380Y1273580D01*
X1030069Y1270890D01*
X1032420Y1267890D01*
X1034380Y1264640D01*
X1035940Y1261170D01*
X1037079Y1257539D01*
X1037759Y1253800D01*
X1037989Y1250000D01*
X1037759Y1246199D01*
X1037079Y1242460D01*
X1035940Y1238829D01*
X1034380Y1235359D01*
X1032420Y1232109D01*
X1030069Y1229109D01*
X1027380Y1226430D01*
X1024390Y1224079D01*
X1021130Y1222109D01*
X1017659Y1220549D01*
X1014030Y1219420D01*
X1010290Y1218730D01*
X1006499Y1218499D01*
G37*
G36*
X912010Y1118499D02*
G01*
X912010Y1181500D01*
X1037989Y1181500D01*
X1037989Y1118499D01*
G37*
G36*
X943500Y1018499D02*
G01*
X939709Y1018730D01*
X935969Y1019420D01*
X932330Y1020549D01*
X928869Y1022109D01*
X925609Y1024079D01*
X922619Y1026430D01*
X919930Y1029109D01*
X917579Y1032109D01*
X915609Y1035359D01*
X914049Y1038829D01*
X912920Y1042460D01*
X912240Y1046199D01*
X912010Y1050000D01*
X912240Y1053800D01*
X912920Y1057539D01*
X914049Y1061170D01*
X915609Y1064640D01*
X917579Y1067890D01*
X919930Y1070890D01*
X922619Y1073580D01*
X925609Y1075920D01*
X928869Y1077890D01*
X932330Y1079450D01*
X935969Y1080580D01*
X939709Y1081269D01*
X943500Y1081500D01*
X1006499Y1081500D01*
X1010290Y1081269D01*
X1014030Y1080580D01*
X1017659Y1079450D01*
X1021130Y1077890D01*
X1024390Y1075920D01*
X1027380Y1073580D01*
X1030069Y1070890D01*
X1032420Y1067890D01*
X1034380Y1064640D01*
X1035940Y1061170D01*
X1037079Y1057539D01*
X1037759Y1053800D01*
X1037989Y1050000D01*
X1037759Y1046199D01*
X1037079Y1042460D01*
X1035940Y1038829D01*
X1034380Y1035359D01*
X1032420Y1032109D01*
X1030069Y1029109D01*
X1027380Y1026430D01*
X1024390Y1024079D01*
X1021130Y1022109D01*
X1017659Y1020549D01*
X1014030Y1019420D01*
X1010290Y1018730D01*
X1006499Y1018499D01*
G37*
G36*
X943500Y918499D02*
G01*
X939709Y918730D01*
X935969Y919420D01*
X932330Y920549D01*
X928869Y922109D01*
X925609Y924079D01*
X922619Y926430D01*
X919930Y929119D01*
X917579Y932109D01*
X915609Y935359D01*
X914049Y938829D01*
X912920Y942460D01*
X912240Y946199D01*
X912010Y950000D01*
X912240Y953800D01*
X912920Y957539D01*
X914049Y961170D01*
X915609Y964640D01*
X917579Y967890D01*
X919930Y970890D01*
X922619Y973580D01*
X925609Y975920D01*
X928869Y977890D01*
X932330Y979450D01*
X935969Y980579D01*
X939709Y981269D01*
X943500Y981500D01*
X1006499Y981500D01*
X1010290Y981269D01*
X1014030Y980579D01*
X1017659Y979450D01*
X1021130Y977890D01*
X1024390Y975920D01*
X1027380Y973580D01*
X1030069Y970890D01*
X1032420Y967890D01*
X1034380Y964640D01*
X1035940Y961170D01*
X1037079Y957539D01*
X1037759Y953800D01*
X1037989Y950000D01*
X1037759Y946199D01*
X1037079Y942460D01*
X1035940Y938829D01*
X1034380Y935359D01*
X1032420Y932109D01*
X1030069Y929119D01*
X1027380Y926430D01*
X1024390Y924079D01*
X1021130Y922109D01*
X1017659Y920549D01*
X1014030Y919420D01*
X1010290Y918730D01*
X1006499Y918499D01*
G37*
G36*
X943500Y818510D02*
G01*
X939709Y818730D01*
X935969Y819420D01*
X932330Y820549D01*
X928869Y822109D01*
X925609Y824079D01*
X922619Y826430D01*
X919930Y829119D01*
X917579Y832109D01*
X915609Y835359D01*
X914049Y838829D01*
X912920Y842460D01*
X912240Y846199D01*
X912010Y850000D01*
X912240Y853800D01*
X912920Y857539D01*
X914049Y861170D01*
X915609Y864640D01*
X917579Y867890D01*
X919930Y870890D01*
X922619Y873580D01*
X925609Y875920D01*
X928869Y877890D01*
X932330Y879450D01*
X935969Y880579D01*
X939709Y881269D01*
X943500Y881500D01*
X1006499Y881500D01*
X1010290Y881269D01*
X1014030Y880579D01*
X1017659Y879450D01*
X1021130Y877890D01*
X1024390Y875920D01*
X1027380Y873580D01*
X1030069Y870890D01*
X1032420Y867890D01*
X1034380Y864640D01*
X1035940Y861170D01*
X1037079Y857539D01*
X1037759Y853800D01*
X1037989Y850000D01*
X1037759Y846199D01*
X1037079Y842460D01*
X1035940Y838829D01*
X1034380Y835359D01*
X1032420Y832109D01*
X1030069Y829119D01*
X1027380Y826430D01*
X1024390Y824079D01*
X1021130Y822109D01*
X1017659Y820549D01*
X1014030Y819420D01*
X1010290Y818730D01*
X1006499Y818510D01*
G37*
G36*
X943500Y718510D02*
G01*
X939709Y718730D01*
X935969Y719420D01*
X932330Y720549D01*
X928869Y722109D01*
X925609Y724079D01*
X922619Y726430D01*
X919930Y729119D01*
X917579Y732109D01*
X915609Y735359D01*
X914049Y738829D01*
X912920Y742460D01*
X912240Y746199D01*
X912010Y750000D01*
X912240Y753800D01*
X912920Y757539D01*
X914049Y761170D01*
X915609Y764640D01*
X917579Y767890D01*
X919930Y770890D01*
X922619Y773580D01*
X925609Y775920D01*
X928869Y777890D01*
X932330Y779450D01*
X935969Y780579D01*
X939709Y781269D01*
X943500Y781500D01*
X1006499Y781500D01*
X1010290Y781269D01*
X1014030Y780579D01*
X1017659Y779450D01*
X1021130Y777890D01*
X1024390Y775920D01*
X1027380Y773580D01*
X1030069Y770890D01*
X1032420Y767890D01*
X1034380Y764640D01*
X1035940Y761170D01*
X1037079Y757539D01*
X1037759Y753800D01*
X1037989Y750000D01*
X1037759Y746199D01*
X1037079Y742460D01*
X1035940Y738829D01*
X1034380Y735359D01*
X1032420Y732109D01*
X1030069Y729119D01*
X1027380Y726430D01*
X1024390Y724079D01*
X1021130Y722109D01*
X1017659Y720549D01*
X1014030Y719420D01*
X1010290Y718730D01*
X1006499Y718510D01*
G37*
G36*
X912010Y618510D02*
G01*
X912010Y681500D01*
X1037989Y681500D01*
X1037989Y618510D01*
G37*
G36*
X943500Y518510D02*
G01*
X939709Y518739D01*
X935969Y519420D01*
X932330Y520549D01*
X928869Y522109D01*
X925609Y524079D01*
X922619Y526430D01*
X919930Y529119D01*
X917579Y532109D01*
X915609Y535359D01*
X914049Y538829D01*
X912920Y542460D01*
X912240Y546210D01*
X912010Y550000D01*
X912240Y553800D01*
X912920Y557539D01*
X914049Y561170D01*
X915609Y564640D01*
X917579Y567890D01*
X919930Y570890D01*
X922619Y573580D01*
X925609Y575920D01*
X928869Y577890D01*
X932330Y579450D01*
X935969Y580579D01*
X939709Y581269D01*
X943500Y581500D01*
X1006499Y581500D01*
X1010290Y581269D01*
X1014030Y580579D01*
X1017659Y579450D01*
X1021130Y577890D01*
X1024390Y575920D01*
X1027380Y573580D01*
X1030069Y570890D01*
X1032420Y567890D01*
X1034380Y564640D01*
X1035940Y561170D01*
X1037079Y557539D01*
X1037759Y553800D01*
X1037989Y550000D01*
X1037759Y546210D01*
X1037079Y542460D01*
X1035940Y538829D01*
X1034380Y535359D01*
X1032420Y532109D01*
X1030069Y529119D01*
X1027380Y526430D01*
X1024390Y524079D01*
X1021130Y522109D01*
X1017659Y520549D01*
X1014030Y519420D01*
X1010290Y518739D01*
X1006499Y518510D01*
G37*
G36*
X943500Y418510D02*
G01*
X939709Y418739D01*
X935969Y419420D01*
X932330Y420549D01*
X928869Y422109D01*
X925609Y424079D01*
X922619Y426430D01*
X919930Y429119D01*
X917579Y432109D01*
X915609Y435359D01*
X914049Y438829D01*
X912920Y442460D01*
X912240Y446210D01*
X912010Y450000D01*
X912240Y453800D01*
X912920Y457539D01*
X914049Y461170D01*
X915609Y464640D01*
X917579Y467890D01*
X919930Y470890D01*
X922619Y473580D01*
X925609Y475920D01*
X928869Y477890D01*
X932330Y479450D01*
X935969Y480579D01*
X939709Y481269D01*
X943500Y481500D01*
X1006499Y481500D01*
X1010290Y481269D01*
X1014030Y480579D01*
X1017659Y479450D01*
X1021130Y477890D01*
X1024390Y475920D01*
X1027380Y473580D01*
X1030069Y470890D01*
X1032420Y467890D01*
X1034380Y464640D01*
X1035940Y461170D01*
X1037079Y457539D01*
X1037759Y453800D01*
X1037989Y450000D01*
X1037759Y446210D01*
X1037079Y442460D01*
X1035940Y438829D01*
X1034380Y435359D01*
X1032420Y432109D01*
X1030069Y429119D01*
X1027380Y426430D01*
X1024390Y424079D01*
X1021130Y422109D01*
X1017659Y420549D01*
X1014030Y419420D01*
X1010290Y418739D01*
X1006499Y418510D01*
G37*
G36*
X193499Y418510D02*
G01*
X189709Y418739D01*
X185970Y419420D01*
X182339Y420549D01*
X178870Y422109D01*
X175610Y424079D01*
X172620Y426430D01*
X169929Y429119D01*
X167579Y432109D01*
X165619Y435359D01*
X164059Y438829D01*
X162919Y442460D01*
X162240Y446210D01*
X162009Y450000D01*
X162240Y453800D01*
X162919Y457539D01*
X164059Y461170D01*
X165619Y464640D01*
X167579Y467890D01*
X169929Y470890D01*
X172620Y473580D01*
X175610Y475920D01*
X178870Y477890D01*
X182339Y479450D01*
X185970Y480579D01*
X189709Y481269D01*
X193499Y481500D01*
X256500Y481500D01*
X260290Y481269D01*
X264029Y480579D01*
X267669Y479450D01*
X271129Y477890D01*
X274389Y475920D01*
X277379Y473580D01*
X280070Y470890D01*
X282420Y467890D01*
X284389Y464640D01*
X285949Y461170D01*
X287080Y457539D01*
X287759Y453800D01*
X287990Y450000D01*
X287759Y446210D01*
X287080Y442460D01*
X285949Y438829D01*
X284389Y435359D01*
X282420Y432109D01*
X280070Y429119D01*
X277379Y426430D01*
X274389Y424079D01*
X271129Y422109D01*
X267669Y420549D01*
X264029Y419420D01*
X260290Y418739D01*
X256500Y418510D01*
G37*
G36*
X193499Y518510D02*
G01*
X189709Y518739D01*
X185970Y519420D01*
X182339Y520549D01*
X178870Y522109D01*
X175610Y524079D01*
X172620Y526430D01*
X169929Y529119D01*
X167579Y532109D01*
X165619Y535359D01*
X164059Y538829D01*
X162919Y542460D01*
X162240Y546210D01*
X162009Y550000D01*
X162240Y553800D01*
X162919Y557539D01*
X164059Y561170D01*
X165619Y564640D01*
X167579Y567890D01*
X169929Y570890D01*
X172620Y573580D01*
X175610Y575920D01*
X178870Y577890D01*
X182339Y579450D01*
X185970Y580579D01*
X189709Y581269D01*
X193499Y581500D01*
X256500Y581500D01*
X260290Y581269D01*
X264029Y580579D01*
X267669Y579450D01*
X271129Y577890D01*
X274389Y575920D01*
X277379Y573580D01*
X280070Y570890D01*
X282420Y567890D01*
X284389Y564640D01*
X285949Y561170D01*
X287080Y557539D01*
X287759Y553800D01*
X287990Y550000D01*
X287759Y546210D01*
X287080Y542460D01*
X285949Y538829D01*
X284389Y535359D01*
X282420Y532109D01*
X280070Y529119D01*
X277379Y526430D01*
X274389Y524079D01*
X271129Y522109D01*
X267669Y520549D01*
X264029Y519420D01*
X260290Y518739D01*
X256500Y518510D01*
G37*
G36*
X162009Y618510D02*
G01*
X162009Y681500D01*
X287990Y681500D01*
X287990Y618510D01*
G37*
G36*
X193499Y718510D02*
G01*
X189709Y718730D01*
X185970Y719420D01*
X182339Y720549D01*
X178870Y722109D01*
X175610Y724079D01*
X172620Y726430D01*
X169929Y729119D01*
X167579Y732109D01*
X165619Y735359D01*
X164059Y738829D01*
X162919Y742460D01*
X162240Y746199D01*
X162009Y750000D01*
X162240Y753800D01*
X162919Y757539D01*
X164059Y761170D01*
X165619Y764640D01*
X167579Y767890D01*
X169929Y770890D01*
X172620Y773580D01*
X175610Y775920D01*
X178870Y777890D01*
X182339Y779450D01*
X185970Y780579D01*
X189709Y781269D01*
X193499Y781500D01*
X256500Y781500D01*
X260290Y781269D01*
X264029Y780579D01*
X267669Y779450D01*
X271129Y777890D01*
X274389Y775920D01*
X277379Y773580D01*
X280070Y770890D01*
X282420Y767890D01*
X284389Y764640D01*
X285949Y761170D01*
X287080Y757539D01*
X287759Y753800D01*
X287990Y750000D01*
X287759Y746199D01*
X287080Y742460D01*
X285949Y738829D01*
X284389Y735359D01*
X282420Y732109D01*
X280070Y729119D01*
X277379Y726430D01*
X274389Y724079D01*
X271129Y722109D01*
X267669Y720549D01*
X264029Y719420D01*
X260290Y718730D01*
X256500Y718510D01*
G37*
G36*
X193499Y818510D02*
G01*
X189709Y818730D01*
X185970Y819420D01*
X182339Y820549D01*
X178870Y822109D01*
X175610Y824079D01*
X172620Y826430D01*
X169929Y829119D01*
X167579Y832109D01*
X165619Y835359D01*
X164059Y838829D01*
X162919Y842460D01*
X162240Y846199D01*
X162009Y850000D01*
X162240Y853800D01*
X162919Y857539D01*
X164059Y861170D01*
X165619Y864640D01*
X167579Y867890D01*
X169929Y870890D01*
X172620Y873580D01*
X175610Y875920D01*
X178870Y877890D01*
X182339Y879450D01*
X185970Y880579D01*
X189709Y881269D01*
X193499Y881500D01*
X256500Y881500D01*
X260290Y881269D01*
X264029Y880579D01*
X267669Y879450D01*
X271129Y877890D01*
X274389Y875920D01*
X277379Y873580D01*
X280070Y870890D01*
X282420Y867890D01*
X284389Y864640D01*
X285949Y861170D01*
X287080Y857539D01*
X287759Y853800D01*
X287990Y850000D01*
X287759Y846199D01*
X287080Y842460D01*
X285949Y838829D01*
X284389Y835359D01*
X282420Y832109D01*
X280070Y829119D01*
X277379Y826430D01*
X274389Y824079D01*
X271129Y822109D01*
X267669Y820549D01*
X264029Y819420D01*
X260290Y818730D01*
X256500Y818510D01*
G37*
G36*
X193499Y918499D02*
G01*
X189709Y918730D01*
X185970Y919420D01*
X182339Y920549D01*
X178870Y922109D01*
X175610Y924079D01*
X172620Y926430D01*
X169929Y929119D01*
X167579Y932109D01*
X165619Y935359D01*
X164059Y938829D01*
X162919Y942460D01*
X162240Y946199D01*
X162009Y950000D01*
X162240Y953800D01*
X162919Y957539D01*
X164059Y961170D01*
X165619Y964640D01*
X167579Y967890D01*
X169929Y970890D01*
X172620Y973580D01*
X175610Y975920D01*
X178870Y977890D01*
X182339Y979450D01*
X185970Y980579D01*
X189709Y981269D01*
X193499Y981500D01*
X256500Y981500D01*
X260290Y981269D01*
X264029Y980579D01*
X267669Y979450D01*
X271129Y977890D01*
X274389Y975920D01*
X277379Y973580D01*
X280070Y970890D01*
X282420Y967890D01*
X284389Y964640D01*
X285949Y961170D01*
X287080Y957539D01*
X287759Y953800D01*
X287990Y950000D01*
X287759Y946199D01*
X287080Y942460D01*
X285949Y938829D01*
X284389Y935359D01*
X282420Y932109D01*
X280070Y929119D01*
X277379Y926430D01*
X274389Y924079D01*
X271129Y922109D01*
X267669Y920549D01*
X264029Y919420D01*
X260290Y918730D01*
X256500Y918499D01*
G37*
G36*
X193499Y1018499D02*
G01*
X189709Y1018730D01*
X185970Y1019420D01*
X182339Y1020549D01*
X178870Y1022109D01*
X175610Y1024079D01*
X172620Y1026430D01*
X169929Y1029109D01*
X167579Y1032109D01*
X165619Y1035359D01*
X164059Y1038829D01*
X162919Y1042460D01*
X162240Y1046199D01*
X162009Y1050000D01*
X162240Y1053800D01*
X162919Y1057539D01*
X164059Y1061170D01*
X165619Y1064640D01*
X167579Y1067890D01*
X169929Y1070890D01*
X172620Y1073580D01*
X175610Y1075920D01*
X178870Y1077890D01*
X182339Y1079450D01*
X185970Y1080580D01*
X189709Y1081269D01*
X193499Y1081500D01*
X256500Y1081500D01*
X260290Y1081269D01*
X264029Y1080580D01*
X267669Y1079450D01*
X271129Y1077890D01*
X274389Y1075920D01*
X277379Y1073580D01*
X280070Y1070890D01*
X282420Y1067890D01*
X284389Y1064640D01*
X285949Y1061170D01*
X287080Y1057539D01*
X287759Y1053800D01*
X287990Y1050000D01*
X287759Y1046199D01*
X287080Y1042460D01*
X285949Y1038829D01*
X284389Y1035359D01*
X282420Y1032109D01*
X280070Y1029109D01*
X277379Y1026430D01*
X274389Y1024079D01*
X271129Y1022109D01*
X267669Y1020549D01*
X264029Y1019420D01*
X260290Y1018730D01*
X256500Y1018499D01*
G37*
G36*
X162009Y1118499D02*
G01*
X162009Y1181500D01*
X287990Y1181500D01*
X287990Y1118499D01*
G37*
G36*
X193499Y1218499D02*
G01*
X189709Y1218730D01*
X185970Y1219420D01*
X182339Y1220549D01*
X178870Y1222109D01*
X175610Y1224079D01*
X172620Y1226430D01*
X169929Y1229109D01*
X167579Y1232109D01*
X165619Y1235359D01*
X164059Y1238829D01*
X162919Y1242460D01*
X162240Y1246199D01*
X162009Y1250000D01*
X162240Y1253800D01*
X162919Y1257539D01*
X164059Y1261170D01*
X165619Y1264640D01*
X167579Y1267890D01*
X169929Y1270890D01*
X172620Y1273580D01*
X175610Y1275920D01*
X178870Y1277890D01*
X182339Y1279450D01*
X185970Y1280580D01*
X189709Y1281269D01*
X193499Y1281500D01*
X256500Y1281500D01*
X260290Y1281269D01*
X264029Y1280580D01*
X267669Y1279450D01*
X271129Y1277890D01*
X274389Y1275920D01*
X277379Y1273580D01*
X280070Y1270890D01*
X282420Y1267890D01*
X284389Y1264640D01*
X285949Y1261170D01*
X287080Y1257539D01*
X287759Y1253800D01*
X287990Y1250000D01*
X287759Y1246199D01*
X287080Y1242460D01*
X285949Y1238829D01*
X284389Y1235359D01*
X282420Y1232109D01*
X280070Y1229109D01*
X277379Y1226430D01*
X274389Y1224079D01*
X271129Y1222109D01*
X267669Y1220549D01*
X264029Y1219420D01*
X260290Y1218730D01*
X256500Y1218499D01*
G37*
G36*
X193499Y1318499D02*
G01*
X189709Y1318730D01*
X185970Y1319420D01*
X182339Y1320549D01*
X178870Y1322109D01*
X175610Y1324079D01*
X172620Y1326430D01*
X169929Y1329109D01*
X167579Y1332109D01*
X165619Y1335359D01*
X164059Y1338829D01*
X162919Y1342460D01*
X162240Y1346199D01*
X162009Y1350000D01*
X162240Y1353800D01*
X162919Y1357539D01*
X164059Y1361170D01*
X165619Y1364640D01*
X167579Y1367890D01*
X169929Y1370890D01*
X172620Y1373580D01*
X175610Y1375920D01*
X178870Y1377890D01*
X182339Y1379450D01*
X185970Y1380580D01*
X189709Y1381269D01*
X193499Y1381500D01*
X256500Y1381500D01*
X260290Y1381269D01*
X264029Y1380580D01*
X267669Y1379450D01*
X271129Y1377890D01*
X274389Y1375920D01*
X277379Y1373580D01*
X280070Y1370890D01*
X282420Y1367890D01*
X284389Y1364640D01*
X285949Y1361170D01*
X287080Y1357539D01*
X287759Y1353800D01*
X287990Y1350000D01*
X287759Y1346199D01*
X287080Y1342460D01*
X285949Y1338829D01*
X284389Y1335359D01*
X282420Y1332109D01*
X280070Y1329109D01*
X277379Y1326430D01*
X274389Y1324079D01*
X271129Y1322109D01*
X267669Y1320549D01*
X264029Y1319420D01*
X260290Y1318730D01*
X256500Y1318499D01*
G37*
G36*
X193499Y1418499D02*
G01*
X189709Y1418730D01*
X185970Y1419420D01*
X182339Y1420549D01*
X178870Y1422109D01*
X175610Y1424079D01*
X172620Y1426419D01*
X169929Y1429109D01*
X167579Y1432109D01*
X165619Y1435359D01*
X164059Y1438829D01*
X162919Y1442460D01*
X162240Y1446199D01*
X162009Y1450000D01*
X162240Y1453800D01*
X162919Y1457539D01*
X164059Y1461170D01*
X165619Y1464640D01*
X167579Y1467890D01*
X169929Y1470890D01*
X172620Y1473569D01*
X175610Y1475920D01*
X178870Y1477890D01*
X182339Y1479450D01*
X185970Y1480580D01*
X189709Y1481269D01*
X193499Y1481500D01*
X256500Y1481500D01*
X260290Y1481269D01*
X264029Y1480580D01*
X267669Y1479450D01*
X271129Y1477890D01*
X274389Y1475920D01*
X277379Y1473569D01*
X280070Y1470890D01*
X282420Y1467890D01*
X284389Y1464640D01*
X285949Y1461170D01*
X287080Y1457539D01*
X287759Y1453800D01*
X287990Y1450000D01*
X287759Y1446199D01*
X287080Y1442460D01*
X285949Y1438829D01*
X284389Y1435359D01*
X282420Y1432109D01*
X280070Y1429109D01*
X277379Y1426419D01*
X274389Y1424079D01*
X271129Y1422109D01*
X267669Y1420549D01*
X264029Y1419420D01*
X260290Y1418730D01*
X256500Y1418499D01*
G37*
G36*
X193499Y1518499D02*
G01*
X189709Y1518730D01*
X185970Y1519420D01*
X182339Y1520549D01*
X178870Y1522109D01*
X175610Y1524079D01*
X172620Y1526419D01*
X169929Y1529109D01*
X167579Y1532109D01*
X165619Y1535359D01*
X164059Y1538829D01*
X162919Y1542460D01*
X162240Y1546199D01*
X162009Y1550000D01*
X162240Y1553800D01*
X162919Y1557539D01*
X164059Y1561170D01*
X165619Y1564640D01*
X167579Y1567890D01*
X169929Y1570890D01*
X172620Y1573569D01*
X175610Y1575920D01*
X178870Y1577890D01*
X182339Y1579450D01*
X185970Y1580580D01*
X189709Y1581269D01*
X193499Y1581500D01*
X256500Y1581500D01*
X260290Y1581269D01*
X264029Y1580580D01*
X267669Y1579450D01*
X271129Y1577890D01*
X274389Y1575920D01*
X277379Y1573569D01*
X280070Y1570890D01*
X282420Y1567890D01*
X284389Y1564640D01*
X285949Y1561170D01*
X287080Y1557539D01*
X287759Y1553800D01*
X287990Y1550000D01*
X287759Y1546199D01*
X287080Y1542460D01*
X285949Y1538829D01*
X284389Y1535359D01*
X282420Y1532109D01*
X280070Y1529109D01*
X277379Y1526419D01*
X274389Y1524079D01*
X271129Y1522109D01*
X267669Y1520549D01*
X264029Y1519420D01*
X260290Y1518730D01*
X256500Y1518499D01*
G37*
G36*
X162009Y1618499D02*
G01*
X162009Y1681500D01*
X287990Y1681500D01*
X287990Y1618499D01*
G37*
G36*
X193499Y1718499D02*
G01*
X189709Y1718730D01*
X185970Y1719420D01*
X182339Y1720549D01*
X178870Y1722109D01*
X175610Y1724079D01*
X172620Y1726419D01*
X169929Y1729109D01*
X167579Y1732109D01*
X165619Y1735359D01*
X164059Y1738829D01*
X162919Y1742460D01*
X162240Y1746199D01*
X162009Y1750000D01*
X162240Y1753800D01*
X162919Y1757539D01*
X164059Y1761170D01*
X165619Y1764640D01*
X167579Y1767890D01*
X169929Y1770890D01*
X172620Y1773569D01*
X175610Y1775920D01*
X178870Y1777890D01*
X182339Y1779450D01*
X185970Y1780580D01*
X189709Y1781269D01*
X193499Y1781500D01*
X256500Y1781500D01*
X260290Y1781269D01*
X264029Y1780580D01*
X267669Y1779450D01*
X271129Y1777890D01*
X274389Y1775920D01*
X277379Y1773569D01*
X280070Y1770890D01*
X282420Y1767890D01*
X284389Y1764640D01*
X285949Y1761170D01*
X287080Y1757539D01*
X287759Y1753800D01*
X287990Y1750000D01*
X287759Y1746199D01*
X287080Y1742460D01*
X285949Y1738829D01*
X284389Y1735359D01*
X282420Y1732109D01*
X280070Y1729109D01*
X277379Y1726419D01*
X274389Y1724079D01*
X271129Y1722109D01*
X267669Y1720549D01*
X264029Y1719420D01*
X260290Y1718730D01*
X256500Y1718499D01*
G37*
G36*
X193499Y1818499D02*
G01*
X189709Y1818730D01*
X185970Y1819420D01*
X182339Y1820549D01*
X178870Y1822109D01*
X175610Y1824079D01*
X172620Y1826419D01*
X169929Y1829109D01*
X167579Y1832109D01*
X165619Y1835359D01*
X164059Y1838829D01*
X162919Y1842460D01*
X162240Y1846199D01*
X162009Y1850000D01*
X162240Y1853800D01*
X162919Y1857539D01*
X164059Y1861170D01*
X165619Y1864640D01*
X167579Y1867890D01*
X169929Y1870880D01*
X172620Y1873569D01*
X175610Y1875920D01*
X178870Y1877890D01*
X182339Y1879450D01*
X185970Y1880580D01*
X189709Y1881269D01*
X193499Y1881500D01*
X256500Y1881500D01*
X260290Y1881269D01*
X264029Y1880580D01*
X267669Y1879450D01*
X271129Y1877890D01*
X274389Y1875920D01*
X277379Y1873569D01*
X280070Y1870880D01*
X282420Y1867890D01*
X284389Y1864640D01*
X285949Y1861170D01*
X287080Y1857539D01*
X287759Y1853800D01*
X287990Y1850000D01*
X287759Y1846199D01*
X287080Y1842460D01*
X285949Y1838829D01*
X284389Y1835359D01*
X282420Y1832109D01*
X280070Y1829109D01*
X277379Y1826419D01*
X274389Y1824079D01*
X271129Y1822109D01*
X267669Y1820549D01*
X264029Y1819420D01*
X260290Y1818730D01*
X256500Y1818499D01*
G37*
G36*
X193499Y1918499D02*
G01*
X189709Y1918730D01*
X185970Y1919420D01*
X182339Y1920549D01*
X178870Y1922109D01*
X175610Y1924079D01*
X172620Y1926419D01*
X169929Y1929109D01*
X167579Y1932109D01*
X165619Y1935359D01*
X164059Y1938829D01*
X162919Y1942460D01*
X162240Y1946199D01*
X162009Y1950000D01*
X162240Y1953800D01*
X162919Y1957539D01*
X164059Y1961170D01*
X165619Y1964640D01*
X167579Y1967890D01*
X169929Y1970880D01*
X172620Y1973569D01*
X175610Y1975920D01*
X178870Y1977890D01*
X182339Y1979450D01*
X185970Y1980580D01*
X189709Y1981269D01*
X193499Y1981489D01*
X256500Y1981489D01*
X260290Y1981269D01*
X264029Y1980580D01*
X267669Y1979450D01*
X271129Y1977890D01*
X274389Y1975920D01*
X277379Y1973569D01*
X280070Y1970880D01*
X282420Y1967890D01*
X284389Y1964640D01*
X285949Y1961170D01*
X287080Y1957539D01*
X287759Y1953800D01*
X287990Y1950000D01*
X287759Y1946199D01*
X287080Y1942460D01*
X285949Y1938829D01*
X284389Y1935359D01*
X282420Y1932109D01*
X280070Y1929109D01*
X277379Y1926419D01*
X274389Y1924079D01*
X271129Y1922109D01*
X267669Y1920549D01*
X264029Y1919420D01*
X260290Y1918730D01*
X256500Y1918499D01*
G37*
G36*
X193499Y2018499D02*
G01*
X189709Y2018730D01*
X185970Y2019420D01*
X182339Y2020549D01*
X178870Y2022109D01*
X175610Y2024079D01*
X172620Y2026419D01*
X169929Y2029109D01*
X167579Y2032109D01*
X165619Y2035359D01*
X164059Y2038829D01*
X162919Y2042460D01*
X162240Y2046199D01*
X162009Y2050000D01*
X162240Y2053800D01*
X162919Y2057539D01*
X164059Y2061170D01*
X165619Y2064640D01*
X167579Y2067890D01*
X169929Y2070880D01*
X172620Y2073569D01*
X175610Y2075920D01*
X178870Y2077890D01*
X182339Y2079450D01*
X185970Y2080580D01*
X189709Y2081269D01*
X193499Y2081489D01*
X256500Y2081489D01*
X260290Y2081269D01*
X264029Y2080580D01*
X267669Y2079450D01*
X271129Y2077890D01*
X274389Y2075920D01*
X277379Y2073569D01*
X280070Y2070880D01*
X282420Y2067890D01*
X284389Y2064640D01*
X285949Y2061170D01*
X287080Y2057539D01*
X287759Y2053800D01*
X287990Y2050000D01*
X287759Y2046199D01*
X287080Y2042460D01*
X285949Y2038829D01*
X284389Y2035359D01*
X282420Y2032109D01*
X280070Y2029109D01*
X277379Y2026419D01*
X274389Y2024079D01*
X271129Y2022109D01*
X267669Y2020549D01*
X264029Y2019420D01*
X260290Y2018730D01*
X256500Y2018499D01*
G37*
G36*
X162009Y2118499D02*
G01*
X162009Y2181489D01*
X287990Y2181489D01*
X287990Y2118499D01*
G37*
G36*
X193499Y2218499D02*
G01*
X189709Y2218730D01*
X185970Y2219420D01*
X182339Y2220549D01*
X178870Y2222109D01*
X175610Y2224079D01*
X172620Y2226419D01*
X169929Y2229109D01*
X167579Y2232109D01*
X165619Y2235359D01*
X164059Y2238829D01*
X162919Y2242460D01*
X162240Y2246199D01*
X162009Y2250000D01*
X162240Y2253789D01*
X162919Y2257539D01*
X164059Y2261170D01*
X165619Y2264640D01*
X167579Y2267890D01*
X169929Y2270880D01*
X172620Y2273569D01*
X175610Y2275920D01*
X178870Y2277890D01*
X182339Y2279450D01*
X185970Y2280580D01*
X189709Y2281260D01*
X193499Y2281489D01*
X256500Y2281489D01*
X260290Y2281260D01*
X264029Y2280580D01*
X267669Y2279450D01*
X271129Y2277890D01*
X274389Y2275920D01*
X277379Y2273569D01*
X280070Y2270880D01*
X282420Y2267890D01*
X284389Y2264640D01*
X285949Y2261170D01*
X287080Y2257539D01*
X287759Y2253789D01*
X287990Y2250000D01*
X287759Y2246199D01*
X287080Y2242460D01*
X285949Y2238829D01*
X284389Y2235359D01*
X282420Y2232109D01*
X280070Y2229109D01*
X277379Y2226419D01*
X274389Y2224079D01*
X271129Y2222109D01*
X267669Y2220549D01*
X264029Y2219420D01*
X260290Y2218730D01*
X256500Y2218499D01*
G37*
G36*
X193499Y2318499D02*
G01*
X189709Y2318730D01*
X185970Y2319420D01*
X182339Y2320549D01*
X178870Y2322109D01*
X175610Y2324079D01*
X172620Y2326419D01*
X169929Y2329109D01*
X167579Y2332109D01*
X165619Y2335359D01*
X164059Y2338829D01*
X162919Y2342460D01*
X162240Y2346199D01*
X162009Y2350000D01*
X162240Y2353789D01*
X162919Y2357539D01*
X164059Y2361170D01*
X165619Y2364640D01*
X167579Y2367890D01*
X169929Y2370880D01*
X172620Y2373569D01*
X175610Y2375920D01*
X178870Y2377890D01*
X182339Y2379450D01*
X185970Y2380580D01*
X189709Y2381260D01*
X193499Y2381489D01*
X256500Y2381489D01*
X260290Y2381260D01*
X264029Y2380580D01*
X267669Y2379450D01*
X271129Y2377890D01*
X274389Y2375920D01*
X277379Y2373569D01*
X280070Y2370880D01*
X282420Y2367890D01*
X284389Y2364640D01*
X285949Y2361170D01*
X287080Y2357539D01*
X287759Y2353789D01*
X287990Y2350000D01*
X287759Y2346199D01*
X287080Y2342460D01*
X285949Y2338829D01*
X284389Y2335359D01*
X282420Y2332109D01*
X280070Y2329109D01*
X277379Y2326419D01*
X274389Y2324079D01*
X271129Y2322109D01*
X267669Y2320549D01*
X264029Y2319420D01*
X260290Y2318730D01*
X256500Y2318499D01*
G37*
G36*
X568499Y481500D02*
G01*
X568730Y485290D01*
X569420Y489040D01*
X570549Y492669D01*
X572109Y496129D01*
X574079Y499389D01*
X576419Y502379D01*
X579109Y505070D01*
X582109Y507420D01*
X585359Y509389D01*
X588829Y510949D01*
X592460Y512080D01*
X596199Y512759D01*
X600000Y512990D01*
X603800Y512759D01*
X607539Y512080D01*
X611170Y510949D01*
X614640Y509389D01*
X617890Y507420D01*
X620890Y505070D01*
X623580Y502379D01*
X625920Y499389D01*
X627890Y496129D01*
X629450Y492669D01*
X630579Y489040D01*
X631269Y485290D01*
X631500Y481500D01*
X631500Y418510D01*
X631269Y414709D01*
X630579Y410970D01*
X629450Y407339D01*
X627890Y403870D01*
X625920Y400610D01*
X623580Y397620D01*
X620890Y394929D01*
X617890Y392590D01*
X614640Y390619D01*
X611170Y389059D01*
X607539Y387929D01*
X603800Y387240D01*
X600000Y387009D01*
X596199Y387240D01*
X592460Y387929D01*
X588829Y389059D01*
X585359Y390619D01*
X582109Y392590D01*
X579109Y394929D01*
X576419Y397620D01*
X574079Y400610D01*
X572109Y403870D01*
X570549Y407339D01*
X569420Y410970D01*
X568730Y414709D01*
X568499Y418510D01*
G37*
G36*
X468499Y481500D02*
G01*
X468730Y485290D01*
X469420Y489040D01*
X470549Y492669D01*
X472109Y496129D01*
X474079Y499389D01*
X476430Y502379D01*
X479109Y505070D01*
X482109Y507420D01*
X485359Y509389D01*
X488829Y510949D01*
X492460Y512080D01*
X496199Y512759D01*
X500000Y512990D01*
X503800Y512759D01*
X507539Y512080D01*
X511170Y510949D01*
X514640Y509389D01*
X517890Y507420D01*
X520890Y505070D01*
X523580Y502379D01*
X525920Y499389D01*
X527890Y496129D01*
X529450Y492669D01*
X530579Y489040D01*
X531269Y485290D01*
X531500Y481500D01*
X531500Y418510D01*
X531269Y414709D01*
X530579Y410970D01*
X529450Y407339D01*
X527890Y403870D01*
X525920Y400610D01*
X523580Y397620D01*
X520890Y394929D01*
X517890Y392590D01*
X514640Y390619D01*
X511170Y389059D01*
X507539Y387929D01*
X503800Y387240D01*
X500000Y387009D01*
X496199Y387240D01*
X492460Y387929D01*
X488829Y389059D01*
X485359Y390619D01*
X482109Y392590D01*
X479109Y394929D01*
X476430Y397620D01*
X474079Y400610D01*
X472109Y403870D01*
X470549Y407339D01*
X469420Y410970D01*
X468730Y414709D01*
X468499Y418510D01*
G37*
G36*
X668499Y481500D02*
G01*
X668730Y485290D01*
X669420Y489040D01*
X670549Y492669D01*
X672109Y496129D01*
X674079Y499389D01*
X676419Y502379D01*
X679109Y505070D01*
X682109Y507420D01*
X685359Y509389D01*
X688829Y510949D01*
X692460Y512080D01*
X696199Y512759D01*
X700000Y512990D01*
X703800Y512759D01*
X707539Y512080D01*
X711170Y510949D01*
X714640Y509389D01*
X717890Y507420D01*
X720890Y505070D01*
X723569Y502379D01*
X725920Y499389D01*
X727890Y496129D01*
X729450Y492669D01*
X730579Y489040D01*
X731269Y485290D01*
X731500Y481500D01*
X731500Y418510D01*
X731269Y414709D01*
X730579Y410970D01*
X729450Y407339D01*
X727890Y403870D01*
X725920Y400610D01*
X723569Y397620D01*
X720890Y394929D01*
X717890Y392590D01*
X714640Y390619D01*
X711170Y389059D01*
X707539Y387929D01*
X703800Y387240D01*
X700000Y387009D01*
X696199Y387240D01*
X692460Y387929D01*
X688829Y389059D01*
X685359Y390619D01*
X682109Y392590D01*
X679109Y394929D01*
X676419Y397620D01*
X674079Y400610D01*
X672109Y403870D01*
X670549Y407339D01*
X669420Y410970D01*
X668730Y414709D01*
X668499Y418510D01*
G37*
M02*
