G04 Layer: BottomSolderMaskLayer*
G04 EasyEDA v6.5.1, 2022-06-12 07:01:07*
G04 a67cddfb3fce44daa9051d46cbbcc19f,10*
G04 Gerber Generator version 0.2*
G04 Scale: 100 percent, Rotated: No, Reflected: No *
G04 Dimensions in inches *
G04 leading zeros omitted , absolute positions ,3 integer and 6 decimal *
%FSLAX36Y36*%
%MOIN*%

%ADD24C,0.0660*%
%ADD28C,0.0749*%

%LPD*%
D24*
G01*
X2200000Y450000D03*
G01*
X2200000Y550000D03*
G01*
X2200000Y650000D03*
G01*
X2200000Y750000D03*
G01*
X2200000Y850000D03*
G01*
X2200000Y950000D03*
G01*
X2200000Y1050000D03*
G01*
X2200000Y1150000D03*
G01*
X2200000Y1250000D03*
G01*
X2200000Y1350000D03*
G01*
X2200000Y1450000D03*
G01*
X2200000Y1550000D03*
G01*
X2200000Y1650000D03*
G01*
X2200000Y1750000D03*
G01*
X2200000Y1850000D03*
G01*
X2200000Y1950000D03*
G01*
X2200000Y2050000D03*
G01*
X2200000Y2150000D03*
G01*
X2200000Y2250000D03*
G36*
X2166999Y2316999D02*
G01*
X2166999Y2383000D01*
X2233000Y2383000D01*
X2233000Y2316999D01*
G37*
G01*
X2100000Y450000D03*
G01*
X2100000Y550000D03*
G01*
X2100000Y650000D03*
G01*
X2100000Y750000D03*
G01*
X2100000Y850000D03*
G01*
X2100000Y950000D03*
G01*
X2100000Y1050000D03*
G01*
X2100000Y1150000D03*
G01*
X2100000Y1250000D03*
G01*
X2100000Y1350000D03*
G01*
X2100000Y1450000D03*
G01*
X2100000Y1550000D03*
G01*
X2100000Y1650000D03*
G01*
X2100000Y1750000D03*
G01*
X2100000Y1850000D03*
G01*
X2100000Y1950000D03*
G01*
X2100000Y2050000D03*
G01*
X2100000Y2150000D03*
G01*
X2100000Y2250000D03*
G36*
X2066999Y2316999D02*
G01*
X2066999Y2383000D01*
X2133000Y2383000D01*
X2133000Y2316999D01*
G37*
G01*
X2000000Y450000D03*
G01*
X2000000Y550000D03*
G01*
X2000000Y650000D03*
G01*
X2000000Y750000D03*
G01*
X2000000Y850000D03*
G01*
X2000000Y950000D03*
G01*
X2000000Y1050000D03*
G01*
X2000000Y1150000D03*
G01*
X2000000Y1250000D03*
G01*
X2000000Y1350000D03*
G01*
X2000000Y1450000D03*
G01*
X2000000Y1550000D03*
G01*
X2000000Y1650000D03*
G01*
X2000000Y1750000D03*
G01*
X2000000Y1850000D03*
G01*
X2000000Y1950000D03*
G01*
X2000000Y2050000D03*
G01*
X2000000Y2150000D03*
G01*
X2000000Y2250000D03*
G36*
X1966999Y2316999D02*
G01*
X1966999Y2383000D01*
X2033000Y2383000D01*
X2033000Y2316999D01*
G37*
G01*
X1900000Y450000D03*
G01*
X1900000Y550000D03*
G01*
X1900000Y650000D03*
G01*
X1900000Y750000D03*
G01*
X1900000Y850000D03*
G01*
X1900000Y950000D03*
G01*
X1900000Y1050000D03*
G01*
X1900000Y1150000D03*
G01*
X1900000Y1250000D03*
G01*
X1900000Y1350000D03*
G01*
X1900000Y1450000D03*
G01*
X1900000Y1550000D03*
G01*
X1900000Y1650000D03*
G01*
X1900000Y1750000D03*
G01*
X1900000Y1850000D03*
G01*
X1900000Y1950000D03*
G01*
X1900000Y2050000D03*
G01*
X1900000Y2150000D03*
G01*
X1900000Y2250000D03*
G36*
X1866999Y2316999D02*
G01*
X1866999Y2383000D01*
X1933000Y2383000D01*
X1933000Y2316999D01*
G37*
G01*
X1800000Y450000D03*
G01*
X1800000Y550000D03*
G01*
X1800000Y650000D03*
G01*
X1800000Y750000D03*
G01*
X1800000Y850000D03*
G01*
X1800000Y950000D03*
G01*
X1800000Y1050000D03*
G01*
X1800000Y1150000D03*
G01*
X1800000Y1250000D03*
G01*
X1800000Y1350000D03*
G01*
X1800000Y1450000D03*
G01*
X1800000Y1550000D03*
G01*
X1800000Y1650000D03*
G01*
X1800000Y1750000D03*
G01*
X1800000Y1850000D03*
G01*
X1800000Y1950000D03*
G01*
X1800000Y2050000D03*
G01*
X1800000Y2150000D03*
G01*
X1800000Y2250000D03*
G36*
X1766999Y2316999D02*
G01*
X1766999Y2383000D01*
X1833000Y2383000D01*
X1833000Y2316999D01*
G37*
G01*
X1700000Y450000D03*
G01*
X1700000Y550000D03*
G01*
X1700000Y650000D03*
G01*
X1700000Y750000D03*
G01*
X1700000Y850000D03*
G01*
X1700000Y950000D03*
G01*
X1700000Y1050000D03*
G01*
X1700000Y1150000D03*
G01*
X1700000Y1250000D03*
G01*
X1700000Y1350000D03*
G01*
X1700000Y1450000D03*
G01*
X1700000Y1550000D03*
G01*
X1700000Y1650000D03*
G01*
X1700000Y1750000D03*
G01*
X1700000Y1850000D03*
G01*
X1700000Y1950000D03*
G01*
X1700000Y2050000D03*
G01*
X1700000Y2150000D03*
G01*
X1700000Y2250000D03*
G36*
X1666999Y2316999D02*
G01*
X1666999Y2383000D01*
X1733000Y2383000D01*
X1733000Y2316999D01*
G37*
G01*
X1600000Y450000D03*
G01*
X1600000Y550000D03*
G01*
X1600000Y650000D03*
G01*
X1600000Y750000D03*
G01*
X1600000Y850000D03*
G01*
X1600000Y950000D03*
G01*
X1600000Y1050000D03*
G01*
X1600000Y1150000D03*
G01*
X1600000Y1250000D03*
G01*
X1600000Y1350000D03*
G01*
X1600000Y1450000D03*
G01*
X1600000Y1550000D03*
G01*
X1600000Y1650000D03*
G01*
X1600000Y1750000D03*
G01*
X1600000Y1850000D03*
G01*
X1600000Y1950000D03*
G01*
X1600000Y2050000D03*
G01*
X1600000Y2150000D03*
G01*
X1600000Y2250000D03*
G36*
X1566999Y2316999D02*
G01*
X1566999Y2383000D01*
X1633000Y2383000D01*
X1633000Y2316999D01*
G37*
G01*
X1500000Y450000D03*
G01*
X1500000Y550000D03*
G01*
X1500000Y650000D03*
G01*
X1500000Y750000D03*
G01*
X1500000Y850000D03*
G01*
X1500000Y950000D03*
G01*
X1500000Y1050000D03*
G01*
X1500000Y1150000D03*
G01*
X1500000Y1250000D03*
G01*
X1500000Y1350000D03*
G01*
X1500000Y1450000D03*
G01*
X1500000Y1550000D03*
G01*
X1500000Y1650000D03*
G01*
X1500000Y1750000D03*
G01*
X1500000Y1850000D03*
G01*
X1500000Y1950000D03*
G01*
X1500000Y2050000D03*
G01*
X1500000Y2150000D03*
G01*
X1500000Y2250000D03*
G36*
X1466999Y2316999D02*
G01*
X1466999Y2383000D01*
X1533000Y2383000D01*
X1533000Y2316999D01*
G37*
G01*
X1400000Y450000D03*
G01*
X1400000Y550000D03*
G01*
X1400000Y650000D03*
G01*
X1400000Y750000D03*
G01*
X1400000Y850000D03*
G01*
X1400000Y950000D03*
G01*
X1400000Y1050000D03*
G01*
X1400000Y1150000D03*
G01*
X1400000Y1250000D03*
G01*
X1400000Y1350000D03*
G01*
X1400000Y1450000D03*
G01*
X1400000Y1550000D03*
G01*
X1400000Y1650000D03*
G01*
X1400000Y1750000D03*
G01*
X1400000Y1850000D03*
G01*
X1400000Y1950000D03*
G01*
X1400000Y2050000D03*
G01*
X1400000Y2150000D03*
G01*
X1400000Y2250000D03*
G36*
X1366999Y2316999D02*
G01*
X1366999Y2383000D01*
X1433000Y2383000D01*
X1433000Y2316999D01*
G37*
G01*
X1300000Y450000D03*
G01*
X1300000Y550000D03*
G01*
X1300000Y650000D03*
G01*
X1300000Y750000D03*
G01*
X1300000Y850000D03*
G01*
X1300000Y950000D03*
G01*
X1300000Y1050000D03*
G01*
X1300000Y1150000D03*
G01*
X1300000Y1250000D03*
G01*
X1300000Y1350000D03*
G01*
X1300000Y1450000D03*
G01*
X1300000Y1550000D03*
G01*
X1300000Y1650000D03*
G01*
X1300000Y1750000D03*
G01*
X1300000Y1850000D03*
G01*
X1300000Y1950000D03*
G01*
X1300000Y2050000D03*
G01*
X1300000Y2150000D03*
G01*
X1300000Y2250000D03*
G36*
X1266999Y2316999D02*
G01*
X1266999Y2383000D01*
X1333000Y2383000D01*
X1333000Y2316999D01*
G37*
G01*
X3600000Y450000D03*
G01*
X3600000Y550000D03*
G01*
X3600000Y650000D03*
G01*
X3600000Y750000D03*
G01*
X3600000Y850000D03*
G01*
X3600000Y950000D03*
G01*
X3600000Y1050000D03*
G01*
X3600000Y1150000D03*
G01*
X3600000Y1250000D03*
G01*
X3600000Y1350000D03*
G01*
X3600000Y1450000D03*
G01*
X3600000Y1550000D03*
G01*
X3600000Y1650000D03*
G01*
X3600000Y1750000D03*
G01*
X3600000Y1850000D03*
G01*
X3600000Y1950000D03*
G01*
X3600000Y2050000D03*
G01*
X3600000Y2150000D03*
G01*
X3600000Y2250000D03*
G36*
X3566999Y2316999D02*
G01*
X3566999Y2383000D01*
X3633000Y2383000D01*
X3633000Y2316999D01*
G37*
G01*
X3700000Y450000D03*
G01*
X3700000Y550000D03*
G01*
X3700000Y650000D03*
G01*
X3700000Y750000D03*
G01*
X3700000Y850000D03*
G01*
X3700000Y950000D03*
G01*
X3700000Y1050000D03*
G01*
X3700000Y1150000D03*
G01*
X3700000Y1250000D03*
G01*
X3700000Y1350000D03*
G01*
X3700000Y1450000D03*
G01*
X3700000Y1550000D03*
G01*
X3700000Y1650000D03*
G01*
X3700000Y1750000D03*
G01*
X3700000Y1850000D03*
G01*
X3700000Y1950000D03*
G01*
X3700000Y2050000D03*
G01*
X3700000Y2150000D03*
G01*
X3700000Y2250000D03*
G36*
X3666999Y2316999D02*
G01*
X3666999Y2383000D01*
X3733000Y2383000D01*
X3733000Y2316999D01*
G37*
G01*
X3800000Y450000D03*
G01*
X3800000Y550000D03*
G01*
X3800000Y650000D03*
G01*
X3800000Y750000D03*
G01*
X3800000Y850000D03*
G01*
X3800000Y950000D03*
G01*
X3800000Y1050000D03*
G01*
X3800000Y1150000D03*
G01*
X3800000Y1250000D03*
G01*
X3800000Y1350000D03*
G01*
X3800000Y1450000D03*
G01*
X3800000Y1550000D03*
G01*
X3800000Y1650000D03*
G01*
X3800000Y1750000D03*
G01*
X3800000Y1850000D03*
G01*
X3800000Y1950000D03*
G01*
X3800000Y2050000D03*
G01*
X3800000Y2150000D03*
G01*
X3800000Y2250000D03*
G36*
X3766999Y2316999D02*
G01*
X3766999Y2383000D01*
X3833000Y2383000D01*
X3833000Y2316999D01*
G37*
G01*
X3900000Y450000D03*
G01*
X3900000Y550000D03*
G01*
X3900000Y650000D03*
G01*
X3900000Y750000D03*
G01*
X3900000Y850000D03*
G01*
X3900000Y950000D03*
G01*
X3900000Y1050000D03*
G01*
X3900000Y1150000D03*
G01*
X3900000Y1250000D03*
G01*
X3900000Y1350000D03*
G01*
X3900000Y1450000D03*
G01*
X3900000Y1550000D03*
G01*
X3900000Y1650000D03*
G01*
X3900000Y1750000D03*
G01*
X3900000Y1850000D03*
G01*
X3900000Y1950000D03*
G01*
X3900000Y2050000D03*
G01*
X3900000Y2150000D03*
G01*
X3900000Y2250000D03*
G36*
X3866999Y2316999D02*
G01*
X3866999Y2383000D01*
X3933000Y2383000D01*
X3933000Y2316999D01*
G37*
G01*
X4000000Y450000D03*
G01*
X4000000Y550000D03*
G01*
X4000000Y650000D03*
G01*
X4000000Y750000D03*
G01*
X4000000Y850000D03*
G01*
X4000000Y950000D03*
G01*
X4000000Y1050000D03*
G01*
X4000000Y1150000D03*
G01*
X4000000Y1250000D03*
G01*
X4000000Y1350000D03*
G01*
X4000000Y1450000D03*
G01*
X4000000Y1550000D03*
G01*
X4000000Y1650000D03*
G01*
X4000000Y1750000D03*
G01*
X4000000Y1850000D03*
G01*
X4000000Y1950000D03*
G01*
X4000000Y2050000D03*
G01*
X4000000Y2150000D03*
G01*
X4000000Y2250000D03*
G36*
X3966999Y2316999D02*
G01*
X3966999Y2383000D01*
X4033000Y2383000D01*
X4033000Y2316999D01*
G37*
G01*
X4100000Y450000D03*
G01*
X4100000Y550000D03*
G01*
X4100000Y650000D03*
G01*
X4100000Y750000D03*
G01*
X4100000Y850000D03*
G01*
X4100000Y950000D03*
G01*
X4100000Y1050000D03*
G01*
X4100000Y1150000D03*
G01*
X4100000Y1250000D03*
G01*
X4100000Y1350000D03*
G01*
X4100000Y1450000D03*
G01*
X4100000Y1550000D03*
G01*
X4100000Y1650000D03*
G01*
X4100000Y1750000D03*
G01*
X4100000Y1850000D03*
G01*
X4100000Y1950000D03*
G01*
X4100000Y2050000D03*
G01*
X4100000Y2150000D03*
G01*
X4100000Y2250000D03*
G36*
X4066999Y2316999D02*
G01*
X4066999Y2383000D01*
X4133000Y2383000D01*
X4133000Y2316999D01*
G37*
G01*
X4200000Y450000D03*
G01*
X4200000Y550000D03*
G01*
X4200000Y650000D03*
G01*
X4200000Y750000D03*
G01*
X4200000Y850000D03*
G01*
X4200000Y950000D03*
G01*
X4200000Y1050000D03*
G01*
X4200000Y1150000D03*
G01*
X4200000Y1250000D03*
G01*
X4200000Y1350000D03*
G01*
X4200000Y1450000D03*
G01*
X4200000Y1550000D03*
G01*
X4200000Y1650000D03*
G01*
X4200000Y1750000D03*
G01*
X4200000Y1850000D03*
G01*
X4200000Y1950000D03*
G01*
X4200000Y2050000D03*
G01*
X4200000Y2150000D03*
G01*
X4200000Y2250000D03*
G36*
X4166999Y2316999D02*
G01*
X4166999Y2383000D01*
X4233000Y2383000D01*
X4233000Y2316999D01*
G37*
G01*
X4300000Y450000D03*
G01*
X4300000Y550000D03*
G01*
X4300000Y650000D03*
G01*
X4300000Y750000D03*
G01*
X4300000Y850000D03*
G01*
X4300000Y950000D03*
G01*
X4300000Y1050000D03*
G01*
X4300000Y1150000D03*
G01*
X4300000Y1250000D03*
G01*
X4300000Y1350000D03*
G01*
X4300000Y1450000D03*
G01*
X4300000Y1550000D03*
G01*
X4300000Y1650000D03*
G01*
X4300000Y1750000D03*
G01*
X4300000Y1850000D03*
G01*
X4300000Y1950000D03*
G01*
X4300000Y2050000D03*
G01*
X4300000Y2150000D03*
G01*
X4300000Y2250000D03*
G36*
X4266999Y2316999D02*
G01*
X4266999Y2383000D01*
X4333000Y2383000D01*
X4333000Y2316999D01*
G37*
G01*
X4400000Y450000D03*
G01*
X4400000Y550000D03*
G01*
X4400000Y650000D03*
G01*
X4400000Y750000D03*
G01*
X4400000Y850000D03*
G01*
X4400000Y950000D03*
G01*
X4400000Y1050000D03*
G01*
X4400000Y1150000D03*
G01*
X4400000Y1250000D03*
G01*
X4400000Y1350000D03*
G01*
X4400000Y1450000D03*
G01*
X4400000Y1550000D03*
G01*
X4400000Y1650000D03*
G01*
X4400000Y1750000D03*
G01*
X4400000Y1850000D03*
G01*
X4400000Y1950000D03*
G01*
X4400000Y2050000D03*
G01*
X4400000Y2150000D03*
G01*
X4400000Y2250000D03*
G36*
X4366999Y2316999D02*
G01*
X4366999Y2383000D01*
X4433000Y2383000D01*
X4433000Y2316999D01*
G37*
G01*
X4500000Y450000D03*
G01*
X4500000Y550000D03*
G01*
X4500000Y650000D03*
G01*
X4500000Y750000D03*
G01*
X4500000Y850000D03*
G01*
X4500000Y950000D03*
G01*
X4500000Y1050000D03*
G01*
X4500000Y1150000D03*
G01*
X4500000Y1250000D03*
G01*
X4500000Y1350000D03*
G01*
X4500000Y1450000D03*
G01*
X4500000Y1550000D03*
G01*
X4500000Y1650000D03*
G01*
X4500000Y1750000D03*
G01*
X4500000Y1850000D03*
G01*
X4500000Y1950000D03*
G01*
X4500000Y2050000D03*
G01*
X4500000Y2150000D03*
G01*
X4500000Y2250000D03*
G36*
X4466999Y2316999D02*
G01*
X4466999Y2383000D01*
X4533000Y2383000D01*
X4533000Y2316999D01*
G37*
D28*
G01*
X2550000Y2350000D03*
G01*
X2550000Y2250000D03*
G36*
X2512500Y2112500D02*
G01*
X2512500Y2187500D01*
X2587500Y2187500D01*
X2587500Y2112500D01*
G37*
G01*
X2550000Y2050000D03*
G01*
X2550000Y1950000D03*
G01*
X2550000Y1850000D03*
G01*
X2550000Y1750000D03*
G36*
X2512500Y1612500D02*
G01*
X2512500Y1687500D01*
X2587500Y1687500D01*
X2587500Y1612500D01*
G37*
G01*
X2550000Y1550000D03*
G01*
X2550000Y1450000D03*
G01*
X2550000Y1350000D03*
G01*
X2550000Y1250000D03*
G36*
X2512500Y1112500D02*
G01*
X2512500Y1187500D01*
X2587500Y1187500D01*
X2587500Y1112500D01*
G37*
G01*
X2550000Y1050000D03*
G01*
X2550000Y950000D03*
G01*
X2550000Y850000D03*
G01*
X2550000Y750000D03*
G36*
X2512500Y612500D02*
G01*
X2512500Y687500D01*
X2587500Y687500D01*
X2587500Y612500D01*
G37*
G01*
X2550000Y550000D03*
G01*
X2550000Y450000D03*
G01*
X3250000Y450000D03*
G01*
X3250000Y550000D03*
G36*
X3212500Y612500D02*
G01*
X3212500Y687500D01*
X3287500Y687500D01*
X3287500Y612500D01*
G37*
G01*
X3250000Y750000D03*
G01*
X3250000Y850000D03*
G01*
X3250000Y950000D03*
G01*
X3250000Y1050000D03*
G36*
X3212500Y1112500D02*
G01*
X3212500Y1187500D01*
X3287500Y1187500D01*
X3287500Y1112500D01*
G37*
G01*
X3250000Y1250000D03*
G01*
X3250000Y1350000D03*
G01*
X3250000Y1450000D03*
G01*
X3250000Y1550000D03*
G36*
X3212500Y1612500D02*
G01*
X3212500Y1687500D01*
X3287500Y1687500D01*
X3287500Y1612500D01*
G37*
G01*
X3250000Y1750000D03*
G01*
X3250000Y1850000D03*
G01*
X3250000Y1950000D03*
G01*
X3250000Y2050000D03*
G36*
X3212500Y2112500D02*
G01*
X3212500Y2187500D01*
X3287500Y2187500D01*
X3287500Y2112500D01*
G37*
G01*
X3250000Y2250000D03*
G01*
X3250000Y2350000D03*
G01*
X2800000Y459059D03*
G36*
X2862500Y421599D02*
G01*
X2862500Y496500D01*
X2937500Y496500D01*
X2937500Y421599D01*
G37*
G01*
X3000000Y459059D03*
M02*
