G04 Layer: TopSolderMaskLayer*
G04 EasyEDA v6.5.1, 2022-06-12 07:01:07*
G04 a67cddfb3fce44daa9051d46cbbcc19f,10*
G04 Gerber Generator version 0.2*
G04 Scale: 100 percent, Rotated: No, Reflected: No *
G04 Dimensions in inches *
G04 leading zeros omitted , absolute positions ,3 integer and 6 decimal *
%FSLAX36Y36*%
%MOIN*%

%ADD24C,0.0660*%
%ADD28C,0.0749*%

%LPD*%
D24*
G01*
X2200000Y450000D03*
G01*
X2200000Y550000D03*
G01*
X2200000Y650000D03*
G01*
X2200000Y750000D03*
G01*
X2200000Y850000D03*
G01*
X2200000Y950000D03*
G01*
X2200000Y1050000D03*
G01*
X2200000Y1150000D03*
G01*
X2200000Y1250000D03*
G01*
X2200000Y1350000D03*
G01*
X2200000Y1450000D03*
G01*
X2200000Y1550000D03*
G01*
X2200000Y1650000D03*
G01*
X2200000Y1750000D03*
G01*
X2200000Y1850000D03*
G01*
X2200000Y1950000D03*
G01*
X2200000Y2050000D03*
G01*
X2200000Y2150000D03*
G01*
X2200000Y2250000D03*
G36*
X2166999Y2316999D02*
G01*
X2166999Y2383000D01*
X2233000Y2383000D01*
X2233000Y2316999D01*
G37*
G01*
X2100000Y450000D03*
G01*
X2100000Y550000D03*
G01*
X2100000Y650000D03*
G01*
X2100000Y750000D03*
G01*
X2100000Y850000D03*
G01*
X2100000Y950000D03*
G01*
X2100000Y1050000D03*
G01*
X2100000Y1150000D03*
G01*
X2100000Y1250000D03*
G01*
X2100000Y1350000D03*
G01*
X2100000Y1450000D03*
G01*
X2100000Y1550000D03*
G01*
X2100000Y1650000D03*
G01*
X2100000Y1750000D03*
G01*
X2100000Y1850000D03*
G01*
X2100000Y1950000D03*
G01*
X2100000Y2050000D03*
G01*
X2100000Y2150000D03*
G01*
X2100000Y2250000D03*
G36*
X2066999Y2316999D02*
G01*
X2066999Y2383000D01*
X2133000Y2383000D01*
X2133000Y2316999D01*
G37*
G01*
X2000000Y450000D03*
G01*
X2000000Y550000D03*
G01*
X2000000Y650000D03*
G01*
X2000000Y750000D03*
G01*
X2000000Y850000D03*
G01*
X2000000Y950000D03*
G01*
X2000000Y1050000D03*
G01*
X2000000Y1150000D03*
G01*
X2000000Y1250000D03*
G01*
X2000000Y1350000D03*
G01*
X2000000Y1450000D03*
G01*
X2000000Y1550000D03*
G01*
X2000000Y1650000D03*
G01*
X2000000Y1750000D03*
G01*
X2000000Y1850000D03*
G01*
X2000000Y1950000D03*
G01*
X2000000Y2050000D03*
G01*
X2000000Y2150000D03*
G01*
X2000000Y2250000D03*
G36*
X1966999Y2316999D02*
G01*
X1966999Y2383000D01*
X2033000Y2383000D01*
X2033000Y2316999D01*
G37*
G01*
X1900000Y450000D03*
G01*
X1900000Y550000D03*
G01*
X1900000Y650000D03*
G01*
X1900000Y750000D03*
G01*
X1900000Y850000D03*
G01*
X1900000Y950000D03*
G01*
X1900000Y1050000D03*
G01*
X1900000Y1150000D03*
G01*
X1900000Y1250000D03*
G01*
X1900000Y1350000D03*
G01*
X1900000Y1450000D03*
G01*
X1900000Y1550000D03*
G01*
X1900000Y1650000D03*
G01*
X1900000Y1750000D03*
G01*
X1900000Y1850000D03*
G01*
X1900000Y1950000D03*
G01*
X1900000Y2050000D03*
G01*
X1900000Y2150000D03*
G01*
X1900000Y2250000D03*
G36*
X1866999Y2316999D02*
G01*
X1866999Y2383000D01*
X1933000Y2383000D01*
X1933000Y2316999D01*
G37*
G01*
X1800000Y450000D03*
G01*
X1800000Y550000D03*
G01*
X1800000Y650000D03*
G01*
X1800000Y750000D03*
G01*
X1800000Y850000D03*
G01*
X1800000Y950000D03*
G01*
X1800000Y1050000D03*
G01*
X1800000Y1150000D03*
G01*
X1800000Y1250000D03*
G01*
X1800000Y1350000D03*
G01*
X1800000Y1450000D03*
G01*
X1800000Y1550000D03*
G01*
X1800000Y1650000D03*
G01*
X1800000Y1750000D03*
G01*
X1800000Y1850000D03*
G01*
X1800000Y1950000D03*
G01*
X1800000Y2050000D03*
G01*
X1800000Y2150000D03*
G01*
X1800000Y2250000D03*
G36*
X1766999Y2316999D02*
G01*
X1766999Y2383000D01*
X1833000Y2383000D01*
X1833000Y2316999D01*
G37*
G01*
X1700000Y450000D03*
G01*
X1700000Y550000D03*
G01*
X1700000Y650000D03*
G01*
X1700000Y750000D03*
G01*
X1700000Y850000D03*
G01*
X1700000Y950000D03*
G01*
X1700000Y1050000D03*
G01*
X1700000Y1150000D03*
G01*
X1700000Y1250000D03*
G01*
X1700000Y1350000D03*
G01*
X1700000Y1450000D03*
G01*
X1700000Y1550000D03*
G01*
X1700000Y1650000D03*
G01*
X1700000Y1750000D03*
G01*
X1700000Y1850000D03*
G01*
X1700000Y1950000D03*
G01*
X1700000Y2050000D03*
G01*
X1700000Y2150000D03*
G01*
X1700000Y2250000D03*
G36*
X1666999Y2316999D02*
G01*
X1666999Y2383000D01*
X1733000Y2383000D01*
X1733000Y2316999D01*
G37*
G01*
X1600000Y450000D03*
G01*
X1600000Y550000D03*
G01*
X1600000Y650000D03*
G01*
X1600000Y750000D03*
G01*
X1600000Y850000D03*
G01*
X1600000Y950000D03*
G01*
X1600000Y1050000D03*
G01*
X1600000Y1150000D03*
G01*
X1600000Y1250000D03*
G01*
X1600000Y1350000D03*
G01*
X1600000Y1450000D03*
G01*
X1600000Y1550000D03*
G01*
X1600000Y1650000D03*
G01*
X1600000Y1750000D03*
G01*
X1600000Y1850000D03*
G01*
X1600000Y1950000D03*
G01*
X1600000Y2050000D03*
G01*
X1600000Y2150000D03*
G01*
X1600000Y2250000D03*
G36*
X1566999Y2316999D02*
G01*
X1566999Y2383000D01*
X1633000Y2383000D01*
X1633000Y2316999D01*
G37*
G01*
X1500000Y450000D03*
G01*
X1500000Y550000D03*
G01*
X1500000Y650000D03*
G01*
X1500000Y750000D03*
G01*
X1500000Y850000D03*
G01*
X1500000Y950000D03*
G01*
X1500000Y1050000D03*
G01*
X1500000Y1150000D03*
G01*
X1500000Y1250000D03*
G01*
X1500000Y1350000D03*
G01*
X1500000Y1450000D03*
G01*
X1500000Y1550000D03*
G01*
X1500000Y1650000D03*
G01*
X1500000Y1750000D03*
G01*
X1500000Y1850000D03*
G01*
X1500000Y1950000D03*
G01*
X1500000Y2050000D03*
G01*
X1500000Y2150000D03*
G01*
X1500000Y2250000D03*
G36*
X1466999Y2316999D02*
G01*
X1466999Y2383000D01*
X1533000Y2383000D01*
X1533000Y2316999D01*
G37*
G01*
X1400000Y450000D03*
G01*
X1400000Y550000D03*
G01*
X1400000Y650000D03*
G01*
X1400000Y750000D03*
G01*
X1400000Y850000D03*
G01*
X1400000Y950000D03*
G01*
X1400000Y1050000D03*
G01*
X1400000Y1150000D03*
G01*
X1400000Y1250000D03*
G01*
X1400000Y1350000D03*
G01*
X1400000Y1450000D03*
G01*
X1400000Y1550000D03*
G01*
X1400000Y1650000D03*
G01*
X1400000Y1750000D03*
G01*
X1400000Y1850000D03*
G01*
X1400000Y1950000D03*
G01*
X1400000Y2050000D03*
G01*
X1400000Y2150000D03*
G01*
X1400000Y2250000D03*
G36*
X1366999Y2316999D02*
G01*
X1366999Y2383000D01*
X1433000Y2383000D01*
X1433000Y2316999D01*
G37*
G01*
X1300000Y450000D03*
G01*
X1300000Y550000D03*
G01*
X1300000Y650000D03*
G01*
X1300000Y750000D03*
G01*
X1300000Y850000D03*
G01*
X1300000Y950000D03*
G01*
X1300000Y1050000D03*
G01*
X1300000Y1150000D03*
G01*
X1300000Y1250000D03*
G01*
X1300000Y1350000D03*
G01*
X1300000Y1450000D03*
G01*
X1300000Y1550000D03*
G01*
X1300000Y1650000D03*
G01*
X1300000Y1750000D03*
G01*
X1300000Y1850000D03*
G01*
X1300000Y1950000D03*
G01*
X1300000Y2050000D03*
G01*
X1300000Y2150000D03*
G01*
X1300000Y2250000D03*
G36*
X1266999Y2316999D02*
G01*
X1266999Y2383000D01*
X1333000Y2383000D01*
X1333000Y2316999D01*
G37*
G01*
X3600000Y450000D03*
G01*
X3600000Y550000D03*
G01*
X3600000Y650000D03*
G01*
X3600000Y750000D03*
G01*
X3600000Y850000D03*
G01*
X3600000Y950000D03*
G01*
X3600000Y1050000D03*
G01*
X3600000Y1150000D03*
G01*
X3600000Y1250000D03*
G01*
X3600000Y1350000D03*
G01*
X3600000Y1450000D03*
G01*
X3600000Y1550000D03*
G01*
X3600000Y1650000D03*
G01*
X3600000Y1750000D03*
G01*
X3600000Y1850000D03*
G01*
X3600000Y1950000D03*
G01*
X3600000Y2050000D03*
G01*
X3600000Y2150000D03*
G01*
X3600000Y2250000D03*
G36*
X3566999Y2316999D02*
G01*
X3566999Y2383000D01*
X3633000Y2383000D01*
X3633000Y2316999D01*
G37*
G01*
X3700000Y450000D03*
G01*
X3700000Y550000D03*
G01*
X3700000Y650000D03*
G01*
X3700000Y750000D03*
G01*
X3700000Y850000D03*
G01*
X3700000Y950000D03*
G01*
X3700000Y1050000D03*
G01*
X3700000Y1150000D03*
G01*
X3700000Y1250000D03*
G01*
X3700000Y1350000D03*
G01*
X3700000Y1450000D03*
G01*
X3700000Y1550000D03*
G01*
X3700000Y1650000D03*
G01*
X3700000Y1750000D03*
G01*
X3700000Y1850000D03*
G01*
X3700000Y1950000D03*
G01*
X3700000Y2050000D03*
G01*
X3700000Y2150000D03*
G01*
X3700000Y2250000D03*
G36*
X3666999Y2316999D02*
G01*
X3666999Y2383000D01*
X3733000Y2383000D01*
X3733000Y2316999D01*
G37*
G01*
X3800000Y450000D03*
G01*
X3800000Y550000D03*
G01*
X3800000Y650000D03*
G01*
X3800000Y750000D03*
G01*
X3800000Y850000D03*
G01*
X3800000Y950000D03*
G01*
X3800000Y1050000D03*
G01*
X3800000Y1150000D03*
G01*
X3800000Y1250000D03*
G01*
X3800000Y1350000D03*
G01*
X3800000Y1450000D03*
G01*
X3800000Y1550000D03*
G01*
X3800000Y1650000D03*
G01*
X3800000Y1750000D03*
G01*
X3800000Y1850000D03*
G01*
X3800000Y1950000D03*
G01*
X3800000Y2050000D03*
G01*
X3800000Y2150000D03*
G01*
X3800000Y2250000D03*
G36*
X3766999Y2316999D02*
G01*
X3766999Y2383000D01*
X3833000Y2383000D01*
X3833000Y2316999D01*
G37*
G01*
X3900000Y450000D03*
G01*
X3900000Y550000D03*
G01*
X3900000Y650000D03*
G01*
X3900000Y750000D03*
G01*
X3900000Y850000D03*
G01*
X3900000Y950000D03*
G01*
X3900000Y1050000D03*
G01*
X3900000Y1150000D03*
G01*
X3900000Y1250000D03*
G01*
X3900000Y1350000D03*
G01*
X3900000Y1450000D03*
G01*
X3900000Y1550000D03*
G01*
X3900000Y1650000D03*
G01*
X3900000Y1750000D03*
G01*
X3900000Y1850000D03*
G01*
X3900000Y1950000D03*
G01*
X3900000Y2050000D03*
G01*
X3900000Y2150000D03*
G01*
X3900000Y2250000D03*
G36*
X3866999Y2316999D02*
G01*
X3866999Y2383000D01*
X3933000Y2383000D01*
X3933000Y2316999D01*
G37*
G01*
X4000000Y450000D03*
G01*
X4000000Y550000D03*
G01*
X4000000Y650000D03*
G01*
X4000000Y750000D03*
G01*
X4000000Y850000D03*
G01*
X4000000Y950000D03*
G01*
X4000000Y1050000D03*
G01*
X4000000Y1150000D03*
G01*
X4000000Y1250000D03*
G01*
X4000000Y1350000D03*
G01*
X4000000Y1450000D03*
G01*
X4000000Y1550000D03*
G01*
X4000000Y1650000D03*
G01*
X4000000Y1750000D03*
G01*
X4000000Y1850000D03*
G01*
X4000000Y1950000D03*
G01*
X4000000Y2050000D03*
G01*
X4000000Y2150000D03*
G01*
X4000000Y2250000D03*
G36*
X3966999Y2316999D02*
G01*
X3966999Y2383000D01*
X4033000Y2383000D01*
X4033000Y2316999D01*
G37*
G01*
X4100000Y450000D03*
G01*
X4100000Y550000D03*
G01*
X4100000Y650000D03*
G01*
X4100000Y750000D03*
G01*
X4100000Y850000D03*
G01*
X4100000Y950000D03*
G01*
X4100000Y1050000D03*
G01*
X4100000Y1150000D03*
G01*
X4100000Y1250000D03*
G01*
X4100000Y1350000D03*
G01*
X4100000Y1450000D03*
G01*
X4100000Y1550000D03*
G01*
X4100000Y1650000D03*
G01*
X4100000Y1750000D03*
G01*
X4100000Y1850000D03*
G01*
X4100000Y1950000D03*
G01*
X4100000Y2050000D03*
G01*
X4100000Y2150000D03*
G01*
X4100000Y2250000D03*
G36*
X4066999Y2316999D02*
G01*
X4066999Y2383000D01*
X4133000Y2383000D01*
X4133000Y2316999D01*
G37*
G01*
X4200000Y450000D03*
G01*
X4200000Y550000D03*
G01*
X4200000Y650000D03*
G01*
X4200000Y750000D03*
G01*
X4200000Y850000D03*
G01*
X4200000Y950000D03*
G01*
X4200000Y1050000D03*
G01*
X4200000Y1150000D03*
G01*
X4200000Y1250000D03*
G01*
X4200000Y1350000D03*
G01*
X4200000Y1450000D03*
G01*
X4200000Y1550000D03*
G01*
X4200000Y1650000D03*
G01*
X4200000Y1750000D03*
G01*
X4200000Y1850000D03*
G01*
X4200000Y1950000D03*
G01*
X4200000Y2050000D03*
G01*
X4200000Y2150000D03*
G01*
X4200000Y2250000D03*
G36*
X4166999Y2316999D02*
G01*
X4166999Y2383000D01*
X4233000Y2383000D01*
X4233000Y2316999D01*
G37*
G01*
X4300000Y450000D03*
G01*
X4300000Y550000D03*
G01*
X4300000Y650000D03*
G01*
X4300000Y750000D03*
G01*
X4300000Y850000D03*
G01*
X4300000Y950000D03*
G01*
X4300000Y1050000D03*
G01*
X4300000Y1150000D03*
G01*
X4300000Y1250000D03*
G01*
X4300000Y1350000D03*
G01*
X4300000Y1450000D03*
G01*
X4300000Y1550000D03*
G01*
X4300000Y1650000D03*
G01*
X4300000Y1750000D03*
G01*
X4300000Y1850000D03*
G01*
X4300000Y1950000D03*
G01*
X4300000Y2050000D03*
G01*
X4300000Y2150000D03*
G01*
X4300000Y2250000D03*
G36*
X4266999Y2316999D02*
G01*
X4266999Y2383000D01*
X4333000Y2383000D01*
X4333000Y2316999D01*
G37*
G01*
X4400000Y450000D03*
G01*
X4400000Y550000D03*
G01*
X4400000Y650000D03*
G01*
X4400000Y750000D03*
G01*
X4400000Y850000D03*
G01*
X4400000Y950000D03*
G01*
X4400000Y1050000D03*
G01*
X4400000Y1150000D03*
G01*
X4400000Y1250000D03*
G01*
X4400000Y1350000D03*
G01*
X4400000Y1450000D03*
G01*
X4400000Y1550000D03*
G01*
X4400000Y1650000D03*
G01*
X4400000Y1750000D03*
G01*
X4400000Y1850000D03*
G01*
X4400000Y1950000D03*
G01*
X4400000Y2050000D03*
G01*
X4400000Y2150000D03*
G01*
X4400000Y2250000D03*
G36*
X4366999Y2316999D02*
G01*
X4366999Y2383000D01*
X4433000Y2383000D01*
X4433000Y2316999D01*
G37*
G01*
X4500000Y450000D03*
G01*
X4500000Y550000D03*
G01*
X4500000Y650000D03*
G01*
X4500000Y750000D03*
G01*
X4500000Y850000D03*
G01*
X4500000Y950000D03*
G01*
X4500000Y1050000D03*
G01*
X4500000Y1150000D03*
G01*
X4500000Y1250000D03*
G01*
X4500000Y1350000D03*
G01*
X4500000Y1450000D03*
G01*
X4500000Y1550000D03*
G01*
X4500000Y1650000D03*
G01*
X4500000Y1750000D03*
G01*
X4500000Y1850000D03*
G01*
X4500000Y1950000D03*
G01*
X4500000Y2050000D03*
G01*
X4500000Y2150000D03*
G01*
X4500000Y2250000D03*
G36*
X4466999Y2316999D02*
G01*
X4466999Y2383000D01*
X4533000Y2383000D01*
X4533000Y2316999D01*
G37*
G36*
X2457100Y2312500D02*
G01*
X2457100Y2387500D01*
X2602899Y2387500D01*
X2602899Y2312500D01*
G37*
G36*
X2457100Y2212500D02*
G01*
X2457100Y2287500D01*
X2602899Y2287500D01*
X2602899Y2212500D01*
G37*
G36*
X2457100Y2112500D02*
G01*
X2457100Y2187500D01*
X2602899Y2187500D01*
X2602899Y2112500D01*
G37*
G36*
X2457100Y2012500D02*
G01*
X2457100Y2087500D01*
X2602899Y2087500D01*
X2602899Y2012500D01*
G37*
G36*
X2457100Y1912500D02*
G01*
X2457100Y1987500D01*
X2602899Y1987500D01*
X2602899Y1912500D01*
G37*
G36*
X2457100Y1812500D02*
G01*
X2457100Y1887500D01*
X2602899Y1887500D01*
X2602899Y1812500D01*
G37*
G36*
X2457100Y1712500D02*
G01*
X2457100Y1787500D01*
X2602899Y1787500D01*
X2602899Y1712500D01*
G37*
G36*
X2457100Y1612500D02*
G01*
X2457100Y1687500D01*
X2602899Y1687500D01*
X2602899Y1612500D01*
G37*
G36*
X2457100Y1512500D02*
G01*
X2457100Y1587500D01*
X2602899Y1587500D01*
X2602899Y1512500D01*
G37*
G36*
X2457100Y1412500D02*
G01*
X2457100Y1487500D01*
X2602899Y1487500D01*
X2602899Y1412500D01*
G37*
G36*
X2457100Y1312500D02*
G01*
X2457100Y1387500D01*
X2602899Y1387500D01*
X2602899Y1312500D01*
G37*
G36*
X2457100Y1212500D02*
G01*
X2457100Y1287500D01*
X2602899Y1287500D01*
X2602899Y1212500D01*
G37*
G36*
X2457100Y1112500D02*
G01*
X2457100Y1187500D01*
X2602899Y1187500D01*
X2602899Y1112500D01*
G37*
G36*
X2457100Y1012500D02*
G01*
X2457100Y1087500D01*
X2602899Y1087500D01*
X2602899Y1012500D01*
G37*
G36*
X2457100Y912500D02*
G01*
X2457100Y987500D01*
X2602899Y987500D01*
X2602899Y912500D01*
G37*
G36*
X2457100Y812500D02*
G01*
X2457100Y887500D01*
X2602899Y887500D01*
X2602899Y812500D01*
G37*
G36*
X2457100Y712500D02*
G01*
X2457100Y787500D01*
X2602899Y787500D01*
X2602899Y712500D01*
G37*
G36*
X2457100Y612500D02*
G01*
X2457100Y687500D01*
X2602899Y687500D01*
X2602899Y612500D01*
G37*
G36*
X2457100Y512500D02*
G01*
X2457100Y587500D01*
X2602899Y587500D01*
X2602899Y512500D01*
G37*
G36*
X2457100Y412500D02*
G01*
X2457100Y487500D01*
X2602899Y487500D01*
X2602899Y412500D01*
G37*
G36*
X3197100Y2312500D02*
G01*
X3197100Y2387500D01*
X3342899Y2387500D01*
X3342899Y2312500D01*
G37*
G36*
X3197100Y2212500D02*
G01*
X3197100Y2287500D01*
X3342899Y2287500D01*
X3342899Y2212500D01*
G37*
G36*
X3197100Y2112500D02*
G01*
X3197100Y2187500D01*
X3342899Y2187500D01*
X3342899Y2112500D01*
G37*
G36*
X3197100Y2012500D02*
G01*
X3197100Y2087500D01*
X3342899Y2087500D01*
X3342899Y2012500D01*
G37*
G36*
X3197100Y1912500D02*
G01*
X3197100Y1987500D01*
X3342899Y1987500D01*
X3342899Y1912500D01*
G37*
G36*
X3197100Y1812500D02*
G01*
X3197100Y1887500D01*
X3342899Y1887500D01*
X3342899Y1812500D01*
G37*
G36*
X3197100Y1712500D02*
G01*
X3197100Y1787500D01*
X3342899Y1787500D01*
X3342899Y1712500D01*
G37*
G36*
X3197100Y1612500D02*
G01*
X3197100Y1687500D01*
X3342899Y1687500D01*
X3342899Y1612500D01*
G37*
G36*
X3197100Y1512500D02*
G01*
X3197100Y1587500D01*
X3342899Y1587500D01*
X3342899Y1512500D01*
G37*
G36*
X3197100Y1412500D02*
G01*
X3197100Y1487500D01*
X3342899Y1487500D01*
X3342899Y1412500D01*
G37*
G36*
X3197100Y1312500D02*
G01*
X3197100Y1387500D01*
X3342899Y1387500D01*
X3342899Y1312500D01*
G37*
G36*
X3197100Y1212500D02*
G01*
X3197100Y1287500D01*
X3342899Y1287500D01*
X3342899Y1212500D01*
G37*
G36*
X3197100Y1112500D02*
G01*
X3197100Y1187500D01*
X3342899Y1187500D01*
X3342899Y1112500D01*
G37*
G36*
X3197100Y1012500D02*
G01*
X3197100Y1087500D01*
X3342899Y1087500D01*
X3342899Y1012500D01*
G37*
G36*
X3197100Y912500D02*
G01*
X3197100Y987500D01*
X3342899Y987500D01*
X3342899Y912500D01*
G37*
G36*
X3197100Y812500D02*
G01*
X3197100Y887500D01*
X3342899Y887500D01*
X3342899Y812500D01*
G37*
G36*
X3197100Y712500D02*
G01*
X3197100Y787500D01*
X3342899Y787500D01*
X3342899Y712500D01*
G37*
G36*
X3197100Y612500D02*
G01*
X3197100Y687500D01*
X3342899Y687500D01*
X3342899Y612500D01*
G37*
G36*
X3197100Y512500D02*
G01*
X3197100Y587500D01*
X3342899Y587500D01*
X3342899Y512500D01*
G37*
G36*
X3197100Y412500D02*
G01*
X3197100Y487500D01*
X3342899Y487500D01*
X3342899Y412500D01*
G37*
G36*
X2762500Y366199D02*
G01*
X2762500Y511999D01*
X2837500Y511999D01*
X2837500Y366199D01*
G37*
G36*
X2862500Y366199D02*
G01*
X2862500Y511999D01*
X2937500Y511999D01*
X2937500Y366199D01*
G37*
G36*
X2962500Y366199D02*
G01*
X2962500Y511999D01*
X3037500Y511999D01*
X3037500Y366199D01*
G37*
D28*
G01*
X2550000Y2350000D03*
G01*
X2550000Y2250000D03*
G36*
X2512500Y2112500D02*
G01*
X2512500Y2187500D01*
X2587500Y2187500D01*
X2587500Y2112500D01*
G37*
G01*
X2550000Y2050000D03*
G01*
X2550000Y1950000D03*
G01*
X2550000Y1850000D03*
G01*
X2550000Y1750000D03*
G36*
X2512500Y1612500D02*
G01*
X2512500Y1687500D01*
X2587500Y1687500D01*
X2587500Y1612500D01*
G37*
G01*
X2550000Y1550000D03*
G01*
X2550000Y1450000D03*
G01*
X2550000Y1350000D03*
G01*
X2550000Y1250000D03*
G36*
X2512500Y1112500D02*
G01*
X2512500Y1187500D01*
X2587500Y1187500D01*
X2587500Y1112500D01*
G37*
G01*
X2550000Y1050000D03*
G01*
X2550000Y950000D03*
G01*
X2550000Y850000D03*
G01*
X2550000Y750000D03*
G36*
X2512500Y612500D02*
G01*
X2512500Y687500D01*
X2587500Y687500D01*
X2587500Y612500D01*
G37*
G01*
X2550000Y550000D03*
G01*
X2550000Y450000D03*
G01*
X3250000Y450000D03*
G01*
X3250000Y550000D03*
G36*
X3212500Y612500D02*
G01*
X3212500Y687500D01*
X3287500Y687500D01*
X3287500Y612500D01*
G37*
G01*
X3250000Y750000D03*
G01*
X3250000Y850000D03*
G01*
X3250000Y950000D03*
G01*
X3250000Y1050000D03*
G36*
X3212500Y1112500D02*
G01*
X3212500Y1187500D01*
X3287500Y1187500D01*
X3287500Y1112500D01*
G37*
G01*
X3250000Y1250000D03*
G01*
X3250000Y1350000D03*
G01*
X3250000Y1450000D03*
G01*
X3250000Y1550000D03*
G36*
X3212500Y1612500D02*
G01*
X3212500Y1687500D01*
X3287500Y1687500D01*
X3287500Y1612500D01*
G37*
G01*
X3250000Y1750000D03*
G01*
X3250000Y1850000D03*
G01*
X3250000Y1950000D03*
G01*
X3250000Y2050000D03*
G36*
X3212500Y2112500D02*
G01*
X3212500Y2187500D01*
X3287500Y2187500D01*
X3287500Y2112500D01*
G37*
G01*
X3250000Y2250000D03*
G01*
X3250000Y2350000D03*
G01*
X2800000Y459059D03*
G36*
X2862500Y421599D02*
G01*
X2862500Y496500D01*
X2937500Y496500D01*
X2937500Y421599D01*
G37*
G01*
X3000000Y459059D03*
G36*
X943400Y2316500D02*
G01*
X939499Y2316700D01*
X935500Y2317500D01*
X931599Y2318699D01*
X927899Y2320300D01*
X924499Y2322399D01*
X921300Y2324899D01*
X918400Y2327800D01*
X915900Y2330999D01*
X913800Y2334400D01*
X912200Y2338099D01*
X911000Y2341999D01*
X910299Y2345999D01*
X910000Y2350000D01*
X910299Y2354000D01*
X911000Y2358000D01*
X912200Y2361900D01*
X913800Y2365599D01*
X915900Y2369000D01*
X918400Y2372199D01*
X921300Y2375100D01*
X924499Y2377600D01*
X927899Y2379699D01*
X931599Y2381300D01*
X935500Y2382500D01*
X939499Y2383200D01*
X943400Y2383499D01*
X1006599Y2383499D01*
X1010500Y2383200D01*
X1014499Y2382500D01*
X1018400Y2381300D01*
X1022100Y2379699D01*
X1025500Y2377600D01*
X1028699Y2375100D01*
X1031599Y2372199D01*
X1034099Y2369000D01*
X1036199Y2365599D01*
X1037799Y2361900D01*
X1038999Y2358000D01*
X1039700Y2354000D01*
X1040000Y2350000D01*
X1039700Y2345999D01*
X1038999Y2341999D01*
X1037799Y2338099D01*
X1036199Y2334400D01*
X1034099Y2330999D01*
X1031599Y2327800D01*
X1028699Y2324899D01*
X1025500Y2322399D01*
X1022100Y2320300D01*
X1018400Y2318699D01*
X1014499Y2317500D01*
X1010500Y2316700D01*
X1006599Y2316500D01*
G37*
G36*
X943400Y2216500D02*
G01*
X939499Y2216700D01*
X935500Y2217500D01*
X931599Y2218699D01*
X927899Y2220300D01*
X924499Y2222399D01*
X921300Y2224899D01*
X918400Y2227800D01*
X915900Y2230999D01*
X913800Y2234400D01*
X912200Y2238099D01*
X911000Y2241999D01*
X910299Y2245999D01*
X910000Y2250000D01*
X910299Y2254000D01*
X911000Y2258000D01*
X912200Y2261900D01*
X913800Y2265599D01*
X915900Y2269000D01*
X918400Y2272199D01*
X921300Y2275100D01*
X924499Y2277600D01*
X927899Y2279699D01*
X931599Y2281300D01*
X935500Y2282500D01*
X939499Y2283200D01*
X943400Y2283499D01*
X1006599Y2283499D01*
X1010500Y2283200D01*
X1014499Y2282500D01*
X1018400Y2281300D01*
X1022100Y2279699D01*
X1025500Y2277600D01*
X1028699Y2275100D01*
X1031599Y2272199D01*
X1034099Y2269000D01*
X1036199Y2265599D01*
X1037799Y2261900D01*
X1038999Y2258000D01*
X1039700Y2254000D01*
X1040000Y2250000D01*
X1039700Y2245999D01*
X1038999Y2241999D01*
X1037799Y2238099D01*
X1036199Y2234400D01*
X1034099Y2230999D01*
X1031599Y2227800D01*
X1028699Y2224899D01*
X1025500Y2222399D01*
X1022100Y2220300D01*
X1018400Y2218699D01*
X1014499Y2217500D01*
X1010500Y2216700D01*
X1006599Y2216500D01*
G37*
G36*
X910000Y2116500D02*
G01*
X910000Y2183499D01*
X1040000Y2183499D01*
X1040000Y2116500D01*
G37*
G36*
X943400Y2016500D02*
G01*
X939499Y2016700D01*
X935500Y2017500D01*
X931599Y2018699D01*
X927899Y2020300D01*
X924499Y2022399D01*
X921300Y2024899D01*
X918400Y2027800D01*
X915900Y2030999D01*
X913800Y2034400D01*
X912200Y2038099D01*
X911000Y2041999D01*
X910299Y2045999D01*
X910000Y2050000D01*
X910299Y2054000D01*
X911000Y2058000D01*
X912200Y2061900D01*
X913800Y2065599D01*
X915900Y2069000D01*
X918400Y2072199D01*
X921300Y2075100D01*
X924499Y2077600D01*
X927899Y2079699D01*
X931599Y2081300D01*
X935500Y2082500D01*
X939499Y2083299D01*
X943400Y2083499D01*
X1006599Y2083499D01*
X1010500Y2083299D01*
X1014499Y2082500D01*
X1018400Y2081300D01*
X1022100Y2079699D01*
X1025500Y2077600D01*
X1028699Y2075100D01*
X1031599Y2072199D01*
X1034099Y2069000D01*
X1036199Y2065599D01*
X1037799Y2061900D01*
X1038999Y2058000D01*
X1039700Y2054000D01*
X1040000Y2050000D01*
X1039700Y2045999D01*
X1038999Y2041999D01*
X1037799Y2038099D01*
X1036199Y2034400D01*
X1034099Y2030999D01*
X1031599Y2027800D01*
X1028699Y2024899D01*
X1025500Y2022399D01*
X1022100Y2020300D01*
X1018400Y2018699D01*
X1014499Y2017500D01*
X1010500Y2016700D01*
X1006599Y2016500D01*
G37*
G36*
X943400Y1916500D02*
G01*
X939499Y1916700D01*
X935500Y1917500D01*
X931599Y1918699D01*
X927899Y1920300D01*
X924499Y1922399D01*
X921300Y1924899D01*
X918400Y1927800D01*
X915900Y1930999D01*
X913800Y1934400D01*
X912200Y1938099D01*
X911000Y1941999D01*
X910299Y1945999D01*
X910000Y1950000D01*
X910299Y1954000D01*
X911000Y1958000D01*
X912200Y1961900D01*
X913800Y1965599D01*
X915900Y1969000D01*
X918400Y1972199D01*
X921300Y1975100D01*
X924499Y1977600D01*
X927899Y1979699D01*
X931599Y1981300D01*
X935500Y1982500D01*
X939499Y1983299D01*
X943400Y1983499D01*
X1006599Y1983499D01*
X1010500Y1983299D01*
X1014499Y1982500D01*
X1018400Y1981300D01*
X1022100Y1979699D01*
X1025500Y1977600D01*
X1028699Y1975100D01*
X1031599Y1972199D01*
X1034099Y1969000D01*
X1036199Y1965599D01*
X1037799Y1961900D01*
X1038999Y1958000D01*
X1039700Y1954000D01*
X1040000Y1950000D01*
X1039700Y1945999D01*
X1038999Y1941999D01*
X1037799Y1938099D01*
X1036199Y1934400D01*
X1034099Y1930999D01*
X1031599Y1927800D01*
X1028699Y1924899D01*
X1025500Y1922399D01*
X1022100Y1920300D01*
X1018400Y1918699D01*
X1014499Y1917500D01*
X1010500Y1916700D01*
X1006599Y1916500D01*
G37*
G36*
X943400Y1816500D02*
G01*
X939499Y1816700D01*
X935500Y1817500D01*
X931599Y1818699D01*
X927899Y1820300D01*
X924499Y1822399D01*
X921300Y1824899D01*
X918400Y1827800D01*
X915900Y1830999D01*
X913800Y1834400D01*
X912200Y1838099D01*
X911000Y1841999D01*
X910299Y1845999D01*
X910000Y1850000D01*
X910299Y1854000D01*
X911000Y1858000D01*
X912200Y1861900D01*
X913800Y1865599D01*
X915900Y1869000D01*
X918400Y1872199D01*
X921300Y1875100D01*
X924499Y1877600D01*
X927899Y1879699D01*
X931599Y1881300D01*
X935500Y1882500D01*
X939499Y1883299D01*
X943400Y1883499D01*
X1006599Y1883499D01*
X1010500Y1883299D01*
X1014499Y1882500D01*
X1018400Y1881300D01*
X1022100Y1879699D01*
X1025500Y1877600D01*
X1028699Y1875100D01*
X1031599Y1872199D01*
X1034099Y1869000D01*
X1036199Y1865599D01*
X1037799Y1861900D01*
X1038999Y1858000D01*
X1039700Y1854000D01*
X1040000Y1850000D01*
X1039700Y1845999D01*
X1038999Y1841999D01*
X1037799Y1838099D01*
X1036199Y1834400D01*
X1034099Y1830999D01*
X1031599Y1827800D01*
X1028699Y1824899D01*
X1025500Y1822399D01*
X1022100Y1820300D01*
X1018400Y1818699D01*
X1014499Y1817500D01*
X1010500Y1816700D01*
X1006599Y1816500D01*
G37*
G36*
X943400Y1716500D02*
G01*
X939499Y1716700D01*
X935500Y1717500D01*
X931599Y1718699D01*
X927899Y1720300D01*
X924499Y1722399D01*
X921300Y1724899D01*
X918400Y1727800D01*
X915900Y1730999D01*
X913800Y1734400D01*
X912200Y1738099D01*
X911000Y1741999D01*
X910299Y1745999D01*
X910000Y1750000D01*
X910299Y1754000D01*
X911000Y1758000D01*
X912200Y1761900D01*
X913800Y1765599D01*
X915900Y1769000D01*
X918400Y1772199D01*
X921300Y1775100D01*
X924499Y1777600D01*
X927899Y1779699D01*
X931599Y1781300D01*
X935500Y1782500D01*
X939499Y1783299D01*
X943400Y1783499D01*
X1006599Y1783499D01*
X1010500Y1783299D01*
X1014499Y1782500D01*
X1018400Y1781300D01*
X1022100Y1779699D01*
X1025500Y1777600D01*
X1028699Y1775100D01*
X1031599Y1772199D01*
X1034099Y1769000D01*
X1036199Y1765599D01*
X1037799Y1761900D01*
X1038999Y1758000D01*
X1039700Y1754000D01*
X1040000Y1750000D01*
X1039700Y1745999D01*
X1038999Y1741999D01*
X1037799Y1738099D01*
X1036199Y1734400D01*
X1034099Y1730999D01*
X1031599Y1727800D01*
X1028699Y1724899D01*
X1025500Y1722399D01*
X1022100Y1720300D01*
X1018400Y1718699D01*
X1014499Y1717500D01*
X1010500Y1716700D01*
X1006599Y1716500D01*
G37*
G36*
X910000Y1616500D02*
G01*
X910000Y1683499D01*
X1040000Y1683499D01*
X1040000Y1616500D01*
G37*
G36*
X943400Y1516500D02*
G01*
X939499Y1516700D01*
X935500Y1517500D01*
X931599Y1518699D01*
X927899Y1520300D01*
X924499Y1522399D01*
X921300Y1524899D01*
X918400Y1527800D01*
X915900Y1530999D01*
X913800Y1534400D01*
X912200Y1538099D01*
X911000Y1541999D01*
X910299Y1545999D01*
X910000Y1550000D01*
X910299Y1554000D01*
X911000Y1558000D01*
X912200Y1561900D01*
X913800Y1565599D01*
X915900Y1569000D01*
X918400Y1572199D01*
X921300Y1575100D01*
X924499Y1577600D01*
X927899Y1579699D01*
X931599Y1581300D01*
X935500Y1582500D01*
X939499Y1583299D01*
X943400Y1583499D01*
X1006599Y1583499D01*
X1010500Y1583299D01*
X1014499Y1582500D01*
X1018400Y1581300D01*
X1022100Y1579699D01*
X1025500Y1577600D01*
X1028699Y1575100D01*
X1031599Y1572199D01*
X1034099Y1569000D01*
X1036199Y1565599D01*
X1037799Y1561900D01*
X1038999Y1558000D01*
X1039700Y1554000D01*
X1040000Y1550000D01*
X1039700Y1545999D01*
X1038999Y1541999D01*
X1037799Y1538099D01*
X1036199Y1534400D01*
X1034099Y1530999D01*
X1031599Y1527800D01*
X1028699Y1524899D01*
X1025500Y1522399D01*
X1022100Y1520300D01*
X1018400Y1518699D01*
X1014499Y1517500D01*
X1010500Y1516700D01*
X1006599Y1516500D01*
G37*
G36*
X943400Y1416500D02*
G01*
X939499Y1416700D01*
X935500Y1417500D01*
X931599Y1418699D01*
X927899Y1420300D01*
X924499Y1422399D01*
X921300Y1424899D01*
X918400Y1427800D01*
X915900Y1430999D01*
X913800Y1434400D01*
X912200Y1438099D01*
X911000Y1441999D01*
X910299Y1445999D01*
X910000Y1450000D01*
X910299Y1454000D01*
X911000Y1458000D01*
X912200Y1461900D01*
X913800Y1465599D01*
X915900Y1469000D01*
X918400Y1472199D01*
X921300Y1475100D01*
X924499Y1477600D01*
X927899Y1479699D01*
X931599Y1481300D01*
X935500Y1482500D01*
X939499Y1483299D01*
X943400Y1483499D01*
X1006599Y1483499D01*
X1010500Y1483299D01*
X1014499Y1482500D01*
X1018400Y1481300D01*
X1022100Y1479699D01*
X1025500Y1477600D01*
X1028699Y1475100D01*
X1031599Y1472199D01*
X1034099Y1469000D01*
X1036199Y1465599D01*
X1037799Y1461900D01*
X1038999Y1458000D01*
X1039700Y1454000D01*
X1040000Y1450000D01*
X1039700Y1445999D01*
X1038999Y1441999D01*
X1037799Y1438099D01*
X1036199Y1434400D01*
X1034099Y1430999D01*
X1031599Y1427800D01*
X1028699Y1424899D01*
X1025500Y1422399D01*
X1022100Y1420300D01*
X1018400Y1418699D01*
X1014499Y1417500D01*
X1010500Y1416700D01*
X1006599Y1416500D01*
G37*
G36*
X943400Y1316500D02*
G01*
X939499Y1316700D01*
X935500Y1317500D01*
X931599Y1318699D01*
X927899Y1320300D01*
X924499Y1322399D01*
X921300Y1324899D01*
X918400Y1327800D01*
X915900Y1330999D01*
X913800Y1334400D01*
X912200Y1338099D01*
X911000Y1341999D01*
X910299Y1345999D01*
X910000Y1350000D01*
X910299Y1354000D01*
X911000Y1358000D01*
X912200Y1361900D01*
X913800Y1365599D01*
X915900Y1369000D01*
X918400Y1372199D01*
X921300Y1375100D01*
X924499Y1377600D01*
X927899Y1379699D01*
X931599Y1381300D01*
X935500Y1382500D01*
X939499Y1383299D01*
X943400Y1383499D01*
X1006599Y1383499D01*
X1010500Y1383299D01*
X1014499Y1382500D01*
X1018400Y1381300D01*
X1022100Y1379699D01*
X1025500Y1377600D01*
X1028699Y1375100D01*
X1031599Y1372199D01*
X1034099Y1369000D01*
X1036199Y1365599D01*
X1037799Y1361900D01*
X1038999Y1358000D01*
X1039700Y1354000D01*
X1040000Y1350000D01*
X1039700Y1345999D01*
X1038999Y1341999D01*
X1037799Y1338099D01*
X1036199Y1334400D01*
X1034099Y1330999D01*
X1031599Y1327800D01*
X1028699Y1324899D01*
X1025500Y1322399D01*
X1022100Y1320300D01*
X1018400Y1318699D01*
X1014499Y1317500D01*
X1010500Y1316700D01*
X1006599Y1316500D01*
G37*
G36*
X943400Y1216500D02*
G01*
X939499Y1216700D01*
X935500Y1217500D01*
X931599Y1218699D01*
X927899Y1220300D01*
X924499Y1222399D01*
X921300Y1224899D01*
X918400Y1227800D01*
X915900Y1230999D01*
X913800Y1234400D01*
X912200Y1238099D01*
X911000Y1241999D01*
X910299Y1245999D01*
X910000Y1250000D01*
X910299Y1254000D01*
X911000Y1258000D01*
X912200Y1261900D01*
X913800Y1265599D01*
X915900Y1269000D01*
X918400Y1272199D01*
X921300Y1275100D01*
X924499Y1277600D01*
X927899Y1279699D01*
X931599Y1281300D01*
X935500Y1282500D01*
X939499Y1283299D01*
X943400Y1283499D01*
X1006599Y1283499D01*
X1010500Y1283299D01*
X1014499Y1282500D01*
X1018400Y1281300D01*
X1022100Y1279699D01*
X1025500Y1277600D01*
X1028699Y1275100D01*
X1031599Y1272199D01*
X1034099Y1269000D01*
X1036199Y1265599D01*
X1037799Y1261900D01*
X1038999Y1258000D01*
X1039700Y1254000D01*
X1040000Y1250000D01*
X1039700Y1245999D01*
X1038999Y1241999D01*
X1037799Y1238099D01*
X1036199Y1234400D01*
X1034099Y1230999D01*
X1031599Y1227800D01*
X1028699Y1224899D01*
X1025500Y1222399D01*
X1022100Y1220300D01*
X1018400Y1218699D01*
X1014499Y1217500D01*
X1010500Y1216700D01*
X1006599Y1216500D01*
G37*
G36*
X910000Y1116500D02*
G01*
X910000Y1183499D01*
X1040000Y1183499D01*
X1040000Y1116500D01*
G37*
G36*
X943400Y1016500D02*
G01*
X939499Y1016700D01*
X935500Y1017500D01*
X931599Y1018699D01*
X927899Y1020300D01*
X924499Y1022399D01*
X921300Y1024899D01*
X918400Y1027800D01*
X915900Y1030999D01*
X913800Y1034400D01*
X912200Y1038099D01*
X911000Y1041999D01*
X910299Y1045999D01*
X910000Y1050000D01*
X910299Y1054000D01*
X911000Y1058000D01*
X912200Y1061900D01*
X913800Y1065599D01*
X915900Y1069000D01*
X918400Y1072199D01*
X921300Y1075100D01*
X924499Y1077600D01*
X927899Y1079699D01*
X931599Y1081300D01*
X935500Y1082500D01*
X939499Y1083299D01*
X943400Y1083499D01*
X1006599Y1083499D01*
X1010500Y1083299D01*
X1014499Y1082500D01*
X1018400Y1081300D01*
X1022100Y1079699D01*
X1025500Y1077600D01*
X1028699Y1075100D01*
X1031599Y1072199D01*
X1034099Y1069000D01*
X1036199Y1065599D01*
X1037799Y1061900D01*
X1038999Y1058000D01*
X1039700Y1054000D01*
X1040000Y1050000D01*
X1039700Y1045999D01*
X1038999Y1041999D01*
X1037799Y1038099D01*
X1036199Y1034400D01*
X1034099Y1030999D01*
X1031599Y1027800D01*
X1028699Y1024899D01*
X1025500Y1022399D01*
X1022100Y1020300D01*
X1018400Y1018699D01*
X1014499Y1017500D01*
X1010500Y1016700D01*
X1006599Y1016500D01*
G37*
G36*
X943400Y916500D02*
G01*
X939499Y916700D01*
X935500Y917500D01*
X931599Y918699D01*
X927899Y920300D01*
X924499Y922399D01*
X921300Y924899D01*
X918400Y927800D01*
X915900Y930999D01*
X913800Y934400D01*
X912200Y938099D01*
X911000Y941999D01*
X910299Y945999D01*
X910000Y950000D01*
X910299Y954000D01*
X911000Y958000D01*
X912200Y961900D01*
X913800Y965599D01*
X915900Y969000D01*
X918400Y972199D01*
X921300Y975100D01*
X924499Y977600D01*
X927899Y979699D01*
X931599Y981300D01*
X935500Y982500D01*
X939499Y983299D01*
X943400Y983499D01*
X1006599Y983499D01*
X1010500Y983299D01*
X1014499Y982500D01*
X1018400Y981300D01*
X1022100Y979699D01*
X1025500Y977600D01*
X1028699Y975100D01*
X1031599Y972199D01*
X1034099Y969000D01*
X1036199Y965599D01*
X1037799Y961900D01*
X1038999Y958000D01*
X1039700Y954000D01*
X1040000Y950000D01*
X1039700Y945999D01*
X1038999Y941999D01*
X1037799Y938099D01*
X1036199Y934400D01*
X1034099Y930999D01*
X1031599Y927800D01*
X1028699Y924899D01*
X1025500Y922399D01*
X1022100Y920300D01*
X1018400Y918699D01*
X1014499Y917500D01*
X1010500Y916700D01*
X1006599Y916500D01*
G37*
G36*
X943400Y816500D02*
G01*
X939499Y816700D01*
X935500Y817500D01*
X931599Y818699D01*
X927899Y820300D01*
X924499Y822399D01*
X921300Y824899D01*
X918400Y827800D01*
X915900Y830999D01*
X913800Y834400D01*
X912200Y838099D01*
X911000Y841999D01*
X910299Y845999D01*
X910000Y850000D01*
X910299Y854000D01*
X911000Y858000D01*
X912200Y861900D01*
X913800Y865599D01*
X915900Y869000D01*
X918400Y872199D01*
X921300Y875100D01*
X924499Y877600D01*
X927899Y879699D01*
X931599Y881300D01*
X935500Y882500D01*
X939499Y883299D01*
X943400Y883499D01*
X1006599Y883499D01*
X1010500Y883299D01*
X1014499Y882500D01*
X1018400Y881300D01*
X1022100Y879699D01*
X1025500Y877600D01*
X1028699Y875100D01*
X1031599Y872199D01*
X1034099Y869000D01*
X1036199Y865599D01*
X1037799Y861900D01*
X1038999Y858000D01*
X1039700Y854000D01*
X1040000Y850000D01*
X1039700Y845999D01*
X1038999Y841999D01*
X1037799Y838099D01*
X1036199Y834400D01*
X1034099Y830999D01*
X1031599Y827800D01*
X1028699Y824899D01*
X1025500Y822399D01*
X1022100Y820300D01*
X1018400Y818699D01*
X1014499Y817500D01*
X1010500Y816700D01*
X1006599Y816500D01*
G37*
G36*
X943400Y716500D02*
G01*
X939499Y716700D01*
X935500Y717500D01*
X931599Y718699D01*
X927899Y720300D01*
X924499Y722399D01*
X921300Y724899D01*
X918400Y727800D01*
X915900Y730999D01*
X913800Y734400D01*
X912200Y738099D01*
X911000Y741999D01*
X910299Y745999D01*
X910000Y750000D01*
X910299Y754000D01*
X911000Y758000D01*
X912200Y761900D01*
X913800Y765599D01*
X915900Y769000D01*
X918400Y772199D01*
X921300Y775100D01*
X924499Y777600D01*
X927899Y779699D01*
X931599Y781300D01*
X935500Y782500D01*
X939499Y783299D01*
X943400Y783499D01*
X1006599Y783499D01*
X1010500Y783299D01*
X1014499Y782500D01*
X1018400Y781300D01*
X1022100Y779699D01*
X1025500Y777600D01*
X1028699Y775100D01*
X1031599Y772199D01*
X1034099Y769000D01*
X1036199Y765599D01*
X1037799Y761900D01*
X1038999Y758000D01*
X1039700Y754000D01*
X1040000Y750000D01*
X1039700Y745999D01*
X1038999Y741999D01*
X1037799Y738099D01*
X1036199Y734400D01*
X1034099Y730999D01*
X1031599Y727800D01*
X1028699Y724899D01*
X1025500Y722399D01*
X1022100Y720300D01*
X1018400Y718699D01*
X1014499Y717500D01*
X1010500Y716700D01*
X1006599Y716500D01*
G37*
G36*
X910000Y616500D02*
G01*
X910000Y683499D01*
X1040000Y683499D01*
X1040000Y616500D01*
G37*
G36*
X943400Y516500D02*
G01*
X939499Y516799D01*
X935500Y517500D01*
X931599Y518699D01*
X927899Y520300D01*
X924499Y522399D01*
X921300Y524899D01*
X918400Y527800D01*
X915900Y530999D01*
X913800Y534400D01*
X912200Y538099D01*
X911000Y541999D01*
X910299Y545999D01*
X910000Y550000D01*
X910299Y554000D01*
X911000Y558000D01*
X912200Y561900D01*
X913800Y565599D01*
X915900Y569000D01*
X918400Y572199D01*
X921300Y575100D01*
X924499Y577600D01*
X927899Y579699D01*
X931599Y581300D01*
X935500Y582500D01*
X939499Y583299D01*
X943400Y583499D01*
X1006599Y583499D01*
X1010500Y583299D01*
X1014499Y582500D01*
X1018400Y581300D01*
X1022100Y579699D01*
X1025500Y577600D01*
X1028699Y575100D01*
X1031599Y572199D01*
X1034099Y569000D01*
X1036199Y565599D01*
X1037799Y561900D01*
X1038999Y558000D01*
X1039700Y554000D01*
X1040000Y550000D01*
X1039700Y545999D01*
X1038999Y541999D01*
X1037799Y538099D01*
X1036199Y534400D01*
X1034099Y530999D01*
X1031599Y527800D01*
X1028699Y524899D01*
X1025500Y522399D01*
X1022100Y520300D01*
X1018400Y518699D01*
X1014499Y517500D01*
X1010500Y516799D01*
X1006599Y516500D01*
G37*
G36*
X943400Y416500D02*
G01*
X939499Y416799D01*
X935500Y417500D01*
X931599Y418699D01*
X927899Y420300D01*
X924499Y422399D01*
X921300Y424899D01*
X918400Y427800D01*
X915900Y430999D01*
X913800Y434400D01*
X912200Y438099D01*
X911000Y441999D01*
X910299Y445999D01*
X910000Y450000D01*
X910299Y454000D01*
X911000Y458000D01*
X912200Y461900D01*
X913800Y465599D01*
X915900Y469000D01*
X918400Y472199D01*
X921300Y475100D01*
X924499Y477600D01*
X927899Y479699D01*
X931599Y481300D01*
X935500Y482500D01*
X939499Y483299D01*
X943400Y483499D01*
X1006599Y483499D01*
X1010500Y483299D01*
X1014499Y482500D01*
X1018400Y481300D01*
X1022100Y479699D01*
X1025500Y477600D01*
X1028699Y475100D01*
X1031599Y472199D01*
X1034099Y469000D01*
X1036199Y465599D01*
X1037799Y461900D01*
X1038999Y458000D01*
X1039700Y454000D01*
X1040000Y450000D01*
X1039700Y445999D01*
X1038999Y441999D01*
X1037799Y438099D01*
X1036199Y434400D01*
X1034099Y430999D01*
X1031599Y427800D01*
X1028699Y424899D01*
X1025500Y422399D01*
X1022100Y420300D01*
X1018400Y418699D01*
X1014499Y417500D01*
X1010500Y416799D01*
X1006599Y416500D01*
G37*
G36*
X193400Y416500D02*
G01*
X189499Y416799D01*
X185500Y417500D01*
X181599Y418699D01*
X177899Y420300D01*
X174499Y422399D01*
X171300Y424899D01*
X168400Y427800D01*
X165900Y430999D01*
X163800Y434400D01*
X162199Y438099D01*
X160999Y441999D01*
X160300Y445999D01*
X160000Y450000D01*
X160300Y454000D01*
X160999Y458000D01*
X162199Y461900D01*
X163800Y465599D01*
X165900Y469000D01*
X168400Y472199D01*
X171300Y475100D01*
X174499Y477600D01*
X177899Y479699D01*
X181599Y481300D01*
X185500Y482500D01*
X189499Y483299D01*
X193400Y483499D01*
X256599Y483499D01*
X260500Y483299D01*
X264499Y482500D01*
X268400Y481300D01*
X272100Y479699D01*
X275500Y477600D01*
X278699Y475100D01*
X281599Y472199D01*
X284099Y469000D01*
X286199Y465599D01*
X287800Y461900D01*
X289000Y458000D01*
X289699Y454000D01*
X290000Y450000D01*
X289699Y445999D01*
X289000Y441999D01*
X287800Y438099D01*
X286199Y434400D01*
X284099Y430999D01*
X281599Y427800D01*
X278699Y424899D01*
X275500Y422399D01*
X272100Y420300D01*
X268400Y418699D01*
X264499Y417500D01*
X260500Y416799D01*
X256599Y416500D01*
G37*
G36*
X193400Y516500D02*
G01*
X189499Y516799D01*
X185500Y517500D01*
X181599Y518699D01*
X177899Y520300D01*
X174499Y522399D01*
X171300Y524899D01*
X168400Y527800D01*
X165900Y530999D01*
X163800Y534400D01*
X162199Y538099D01*
X160999Y541999D01*
X160300Y545999D01*
X160000Y550000D01*
X160300Y554000D01*
X160999Y558000D01*
X162199Y561900D01*
X163800Y565599D01*
X165900Y569000D01*
X168400Y572199D01*
X171300Y575100D01*
X174499Y577600D01*
X177899Y579699D01*
X181599Y581300D01*
X185500Y582500D01*
X189499Y583299D01*
X193400Y583499D01*
X256599Y583499D01*
X260500Y583299D01*
X264499Y582500D01*
X268400Y581300D01*
X272100Y579699D01*
X275500Y577600D01*
X278699Y575100D01*
X281599Y572199D01*
X284099Y569000D01*
X286199Y565599D01*
X287800Y561900D01*
X289000Y558000D01*
X289699Y554000D01*
X290000Y550000D01*
X289699Y545999D01*
X289000Y541999D01*
X287800Y538099D01*
X286199Y534400D01*
X284099Y530999D01*
X281599Y527800D01*
X278699Y524899D01*
X275500Y522399D01*
X272100Y520300D01*
X268400Y518699D01*
X264499Y517500D01*
X260500Y516799D01*
X256599Y516500D01*
G37*
G36*
X160000Y616500D02*
G01*
X160000Y683499D01*
X290000Y683499D01*
X290000Y616500D01*
G37*
G36*
X193400Y716500D02*
G01*
X189499Y716700D01*
X185500Y717500D01*
X181599Y718699D01*
X177899Y720300D01*
X174499Y722399D01*
X171300Y724899D01*
X168400Y727800D01*
X165900Y730999D01*
X163800Y734400D01*
X162199Y738099D01*
X160999Y741999D01*
X160300Y745999D01*
X160000Y750000D01*
X160300Y754000D01*
X160999Y758000D01*
X162199Y761900D01*
X163800Y765599D01*
X165900Y769000D01*
X168400Y772199D01*
X171300Y775100D01*
X174499Y777600D01*
X177899Y779699D01*
X181599Y781300D01*
X185500Y782500D01*
X189499Y783299D01*
X193400Y783499D01*
X256599Y783499D01*
X260500Y783299D01*
X264499Y782500D01*
X268400Y781300D01*
X272100Y779699D01*
X275500Y777600D01*
X278699Y775100D01*
X281599Y772199D01*
X284099Y769000D01*
X286199Y765599D01*
X287800Y761900D01*
X289000Y758000D01*
X289699Y754000D01*
X290000Y750000D01*
X289699Y745999D01*
X289000Y741999D01*
X287800Y738099D01*
X286199Y734400D01*
X284099Y730999D01*
X281599Y727800D01*
X278699Y724899D01*
X275500Y722399D01*
X272100Y720300D01*
X268400Y718699D01*
X264499Y717500D01*
X260500Y716700D01*
X256599Y716500D01*
G37*
G36*
X193400Y816500D02*
G01*
X189499Y816700D01*
X185500Y817500D01*
X181599Y818699D01*
X177899Y820300D01*
X174499Y822399D01*
X171300Y824899D01*
X168400Y827800D01*
X165900Y830999D01*
X163800Y834400D01*
X162199Y838099D01*
X160999Y841999D01*
X160300Y845999D01*
X160000Y850000D01*
X160300Y854000D01*
X160999Y858000D01*
X162199Y861900D01*
X163800Y865599D01*
X165900Y869000D01*
X168400Y872199D01*
X171300Y875100D01*
X174499Y877600D01*
X177899Y879699D01*
X181599Y881300D01*
X185500Y882500D01*
X189499Y883299D01*
X193400Y883499D01*
X256599Y883499D01*
X260500Y883299D01*
X264499Y882500D01*
X268400Y881300D01*
X272100Y879699D01*
X275500Y877600D01*
X278699Y875100D01*
X281599Y872199D01*
X284099Y869000D01*
X286199Y865599D01*
X287800Y861900D01*
X289000Y858000D01*
X289699Y854000D01*
X290000Y850000D01*
X289699Y845999D01*
X289000Y841999D01*
X287800Y838099D01*
X286199Y834400D01*
X284099Y830999D01*
X281599Y827800D01*
X278699Y824899D01*
X275500Y822399D01*
X272100Y820300D01*
X268400Y818699D01*
X264499Y817500D01*
X260500Y816700D01*
X256599Y816500D01*
G37*
G36*
X193400Y916500D02*
G01*
X189499Y916700D01*
X185500Y917500D01*
X181599Y918699D01*
X177899Y920300D01*
X174499Y922399D01*
X171300Y924899D01*
X168400Y927800D01*
X165900Y930999D01*
X163800Y934400D01*
X162199Y938099D01*
X160999Y941999D01*
X160300Y945999D01*
X160000Y950000D01*
X160300Y954000D01*
X160999Y958000D01*
X162199Y961900D01*
X163800Y965599D01*
X165900Y969000D01*
X168400Y972199D01*
X171300Y975100D01*
X174499Y977600D01*
X177899Y979699D01*
X181599Y981300D01*
X185500Y982500D01*
X189499Y983299D01*
X193400Y983499D01*
X256599Y983499D01*
X260500Y983299D01*
X264499Y982500D01*
X268400Y981300D01*
X272100Y979699D01*
X275500Y977600D01*
X278699Y975100D01*
X281599Y972199D01*
X284099Y969000D01*
X286199Y965599D01*
X287800Y961900D01*
X289000Y958000D01*
X289699Y954000D01*
X290000Y950000D01*
X289699Y945999D01*
X289000Y941999D01*
X287800Y938099D01*
X286199Y934400D01*
X284099Y930999D01*
X281599Y927800D01*
X278699Y924899D01*
X275500Y922399D01*
X272100Y920300D01*
X268400Y918699D01*
X264499Y917500D01*
X260500Y916700D01*
X256599Y916500D01*
G37*
G36*
X193400Y1016500D02*
G01*
X189499Y1016700D01*
X185500Y1017500D01*
X181599Y1018699D01*
X177899Y1020300D01*
X174499Y1022399D01*
X171300Y1024899D01*
X168400Y1027800D01*
X165900Y1030999D01*
X163800Y1034400D01*
X162199Y1038099D01*
X160999Y1041999D01*
X160300Y1045999D01*
X160000Y1050000D01*
X160300Y1054000D01*
X160999Y1058000D01*
X162199Y1061900D01*
X163800Y1065599D01*
X165900Y1069000D01*
X168400Y1072199D01*
X171300Y1075100D01*
X174499Y1077600D01*
X177899Y1079699D01*
X181599Y1081300D01*
X185500Y1082500D01*
X189499Y1083299D01*
X193400Y1083499D01*
X256599Y1083499D01*
X260500Y1083299D01*
X264499Y1082500D01*
X268400Y1081300D01*
X272100Y1079699D01*
X275500Y1077600D01*
X278699Y1075100D01*
X281599Y1072199D01*
X284099Y1069000D01*
X286199Y1065599D01*
X287800Y1061900D01*
X289000Y1058000D01*
X289699Y1054000D01*
X290000Y1050000D01*
X289699Y1045999D01*
X289000Y1041999D01*
X287800Y1038099D01*
X286199Y1034400D01*
X284099Y1030999D01*
X281599Y1027800D01*
X278699Y1024899D01*
X275500Y1022399D01*
X272100Y1020300D01*
X268400Y1018699D01*
X264499Y1017500D01*
X260500Y1016700D01*
X256599Y1016500D01*
G37*
G36*
X160000Y1116500D02*
G01*
X160000Y1183499D01*
X290000Y1183499D01*
X290000Y1116500D01*
G37*
G36*
X193400Y1216500D02*
G01*
X189499Y1216700D01*
X185500Y1217500D01*
X181599Y1218699D01*
X177899Y1220300D01*
X174499Y1222399D01*
X171300Y1224899D01*
X168400Y1227800D01*
X165900Y1230999D01*
X163800Y1234400D01*
X162199Y1238099D01*
X160999Y1241999D01*
X160300Y1245999D01*
X160000Y1250000D01*
X160300Y1254000D01*
X160999Y1258000D01*
X162199Y1261900D01*
X163800Y1265599D01*
X165900Y1269000D01*
X168400Y1272199D01*
X171300Y1275100D01*
X174499Y1277600D01*
X177899Y1279699D01*
X181599Y1281300D01*
X185500Y1282500D01*
X189499Y1283299D01*
X193400Y1283499D01*
X256599Y1283499D01*
X260500Y1283299D01*
X264499Y1282500D01*
X268400Y1281300D01*
X272100Y1279699D01*
X275500Y1277600D01*
X278699Y1275100D01*
X281599Y1272199D01*
X284099Y1269000D01*
X286199Y1265599D01*
X287800Y1261900D01*
X289000Y1258000D01*
X289699Y1254000D01*
X290000Y1250000D01*
X289699Y1245999D01*
X289000Y1241999D01*
X287800Y1238099D01*
X286199Y1234400D01*
X284099Y1230999D01*
X281599Y1227800D01*
X278699Y1224899D01*
X275500Y1222399D01*
X272100Y1220300D01*
X268400Y1218699D01*
X264499Y1217500D01*
X260500Y1216700D01*
X256599Y1216500D01*
G37*
G36*
X193400Y1316500D02*
G01*
X189499Y1316700D01*
X185500Y1317500D01*
X181599Y1318699D01*
X177899Y1320300D01*
X174499Y1322399D01*
X171300Y1324899D01*
X168400Y1327800D01*
X165900Y1330999D01*
X163800Y1334400D01*
X162199Y1338099D01*
X160999Y1341999D01*
X160300Y1345999D01*
X160000Y1350000D01*
X160300Y1354000D01*
X160999Y1358000D01*
X162199Y1361900D01*
X163800Y1365599D01*
X165900Y1369000D01*
X168400Y1372199D01*
X171300Y1375100D01*
X174499Y1377600D01*
X177899Y1379699D01*
X181599Y1381300D01*
X185500Y1382500D01*
X189499Y1383299D01*
X193400Y1383499D01*
X256599Y1383499D01*
X260500Y1383299D01*
X264499Y1382500D01*
X268400Y1381300D01*
X272100Y1379699D01*
X275500Y1377600D01*
X278699Y1375100D01*
X281599Y1372199D01*
X284099Y1369000D01*
X286199Y1365599D01*
X287800Y1361900D01*
X289000Y1358000D01*
X289699Y1354000D01*
X290000Y1350000D01*
X289699Y1345999D01*
X289000Y1341999D01*
X287800Y1338099D01*
X286199Y1334400D01*
X284099Y1330999D01*
X281599Y1327800D01*
X278699Y1324899D01*
X275500Y1322399D01*
X272100Y1320300D01*
X268400Y1318699D01*
X264499Y1317500D01*
X260500Y1316700D01*
X256599Y1316500D01*
G37*
G36*
X193400Y1416500D02*
G01*
X189499Y1416700D01*
X185500Y1417500D01*
X181599Y1418699D01*
X177899Y1420300D01*
X174499Y1422399D01*
X171300Y1424899D01*
X168400Y1427800D01*
X165900Y1430999D01*
X163800Y1434400D01*
X162199Y1438099D01*
X160999Y1441999D01*
X160300Y1445999D01*
X160000Y1450000D01*
X160300Y1454000D01*
X160999Y1458000D01*
X162199Y1461900D01*
X163800Y1465599D01*
X165900Y1469000D01*
X168400Y1472199D01*
X171300Y1475100D01*
X174499Y1477600D01*
X177899Y1479699D01*
X181599Y1481300D01*
X185500Y1482500D01*
X189499Y1483299D01*
X193400Y1483499D01*
X256599Y1483499D01*
X260500Y1483299D01*
X264499Y1482500D01*
X268400Y1481300D01*
X272100Y1479699D01*
X275500Y1477600D01*
X278699Y1475100D01*
X281599Y1472199D01*
X284099Y1469000D01*
X286199Y1465599D01*
X287800Y1461900D01*
X289000Y1458000D01*
X289699Y1454000D01*
X290000Y1450000D01*
X289699Y1445999D01*
X289000Y1441999D01*
X287800Y1438099D01*
X286199Y1434400D01*
X284099Y1430999D01*
X281599Y1427800D01*
X278699Y1424899D01*
X275500Y1422399D01*
X272100Y1420300D01*
X268400Y1418699D01*
X264499Y1417500D01*
X260500Y1416700D01*
X256599Y1416500D01*
G37*
G36*
X193400Y1516500D02*
G01*
X189499Y1516700D01*
X185500Y1517500D01*
X181599Y1518699D01*
X177899Y1520300D01*
X174499Y1522399D01*
X171300Y1524899D01*
X168400Y1527800D01*
X165900Y1530999D01*
X163800Y1534400D01*
X162199Y1538099D01*
X160999Y1541999D01*
X160300Y1545999D01*
X160000Y1550000D01*
X160300Y1554000D01*
X160999Y1558000D01*
X162199Y1561900D01*
X163800Y1565599D01*
X165900Y1569000D01*
X168400Y1572199D01*
X171300Y1575100D01*
X174499Y1577600D01*
X177899Y1579699D01*
X181599Y1581300D01*
X185500Y1582500D01*
X189499Y1583299D01*
X193400Y1583499D01*
X256599Y1583499D01*
X260500Y1583299D01*
X264499Y1582500D01*
X268400Y1581300D01*
X272100Y1579699D01*
X275500Y1577600D01*
X278699Y1575100D01*
X281599Y1572199D01*
X284099Y1569000D01*
X286199Y1565599D01*
X287800Y1561900D01*
X289000Y1558000D01*
X289699Y1554000D01*
X290000Y1550000D01*
X289699Y1545999D01*
X289000Y1541999D01*
X287800Y1538099D01*
X286199Y1534400D01*
X284099Y1530999D01*
X281599Y1527800D01*
X278699Y1524899D01*
X275500Y1522399D01*
X272100Y1520300D01*
X268400Y1518699D01*
X264499Y1517500D01*
X260500Y1516700D01*
X256599Y1516500D01*
G37*
G36*
X160000Y1616500D02*
G01*
X160000Y1683499D01*
X290000Y1683499D01*
X290000Y1616500D01*
G37*
G36*
X193400Y1716500D02*
G01*
X189499Y1716700D01*
X185500Y1717500D01*
X181599Y1718699D01*
X177899Y1720300D01*
X174499Y1722399D01*
X171300Y1724899D01*
X168400Y1727800D01*
X165900Y1730999D01*
X163800Y1734400D01*
X162199Y1738099D01*
X160999Y1741999D01*
X160300Y1745999D01*
X160000Y1750000D01*
X160300Y1754000D01*
X160999Y1758000D01*
X162199Y1761900D01*
X163800Y1765599D01*
X165900Y1769000D01*
X168400Y1772199D01*
X171300Y1775100D01*
X174499Y1777600D01*
X177899Y1779699D01*
X181599Y1781300D01*
X185500Y1782500D01*
X189499Y1783299D01*
X193400Y1783499D01*
X256599Y1783499D01*
X260500Y1783299D01*
X264499Y1782500D01*
X268400Y1781300D01*
X272100Y1779699D01*
X275500Y1777600D01*
X278699Y1775100D01*
X281599Y1772199D01*
X284099Y1769000D01*
X286199Y1765599D01*
X287800Y1761900D01*
X289000Y1758000D01*
X289699Y1754000D01*
X290000Y1750000D01*
X289699Y1745999D01*
X289000Y1741999D01*
X287800Y1738099D01*
X286199Y1734400D01*
X284099Y1730999D01*
X281599Y1727800D01*
X278699Y1724899D01*
X275500Y1722399D01*
X272100Y1720300D01*
X268400Y1718699D01*
X264499Y1717500D01*
X260500Y1716700D01*
X256599Y1716500D01*
G37*
G36*
X193400Y1816500D02*
G01*
X189499Y1816700D01*
X185500Y1817500D01*
X181599Y1818699D01*
X177899Y1820300D01*
X174499Y1822399D01*
X171300Y1824899D01*
X168400Y1827800D01*
X165900Y1830999D01*
X163800Y1834400D01*
X162199Y1838099D01*
X160999Y1841999D01*
X160300Y1845999D01*
X160000Y1850000D01*
X160300Y1854000D01*
X160999Y1858000D01*
X162199Y1861900D01*
X163800Y1865599D01*
X165900Y1869000D01*
X168400Y1872199D01*
X171300Y1875100D01*
X174499Y1877600D01*
X177899Y1879699D01*
X181599Y1881300D01*
X185500Y1882500D01*
X189499Y1883299D01*
X193400Y1883499D01*
X256599Y1883499D01*
X260500Y1883299D01*
X264499Y1882500D01*
X268400Y1881300D01*
X272100Y1879699D01*
X275500Y1877600D01*
X278699Y1875100D01*
X281599Y1872199D01*
X284099Y1869000D01*
X286199Y1865599D01*
X287800Y1861900D01*
X289000Y1858000D01*
X289699Y1854000D01*
X290000Y1850000D01*
X289699Y1845999D01*
X289000Y1841999D01*
X287800Y1838099D01*
X286199Y1834400D01*
X284099Y1830999D01*
X281599Y1827800D01*
X278699Y1824899D01*
X275500Y1822399D01*
X272100Y1820300D01*
X268400Y1818699D01*
X264499Y1817500D01*
X260500Y1816700D01*
X256599Y1816500D01*
G37*
G36*
X193400Y1916500D02*
G01*
X189499Y1916700D01*
X185500Y1917500D01*
X181599Y1918699D01*
X177899Y1920300D01*
X174499Y1922399D01*
X171300Y1924899D01*
X168400Y1927800D01*
X165900Y1930999D01*
X163800Y1934400D01*
X162199Y1938099D01*
X160999Y1941999D01*
X160300Y1945999D01*
X160000Y1950000D01*
X160300Y1954000D01*
X160999Y1958000D01*
X162199Y1961900D01*
X163800Y1965599D01*
X165900Y1969000D01*
X168400Y1972199D01*
X171300Y1975100D01*
X174499Y1977600D01*
X177899Y1979699D01*
X181599Y1981300D01*
X185500Y1982500D01*
X189499Y1983299D01*
X193400Y1983499D01*
X256599Y1983499D01*
X260500Y1983299D01*
X264499Y1982500D01*
X268400Y1981300D01*
X272100Y1979699D01*
X275500Y1977600D01*
X278699Y1975100D01*
X281599Y1972199D01*
X284099Y1969000D01*
X286199Y1965599D01*
X287800Y1961900D01*
X289000Y1958000D01*
X289699Y1954000D01*
X290000Y1950000D01*
X289699Y1945999D01*
X289000Y1941999D01*
X287800Y1938099D01*
X286199Y1934400D01*
X284099Y1930999D01*
X281599Y1927800D01*
X278699Y1924899D01*
X275500Y1922399D01*
X272100Y1920300D01*
X268400Y1918699D01*
X264499Y1917500D01*
X260500Y1916700D01*
X256599Y1916500D01*
G37*
G36*
X193400Y2016500D02*
G01*
X189499Y2016700D01*
X185500Y2017500D01*
X181599Y2018699D01*
X177899Y2020300D01*
X174499Y2022399D01*
X171300Y2024899D01*
X168400Y2027800D01*
X165900Y2030999D01*
X163800Y2034400D01*
X162199Y2038099D01*
X160999Y2041999D01*
X160300Y2045999D01*
X160000Y2050000D01*
X160300Y2054000D01*
X160999Y2058000D01*
X162199Y2061900D01*
X163800Y2065599D01*
X165900Y2069000D01*
X168400Y2072199D01*
X171300Y2075100D01*
X174499Y2077600D01*
X177899Y2079699D01*
X181599Y2081300D01*
X185500Y2082500D01*
X189499Y2083299D01*
X193400Y2083499D01*
X256599Y2083499D01*
X260500Y2083299D01*
X264499Y2082500D01*
X268400Y2081300D01*
X272100Y2079699D01*
X275500Y2077600D01*
X278699Y2075100D01*
X281599Y2072199D01*
X284099Y2069000D01*
X286199Y2065599D01*
X287800Y2061900D01*
X289000Y2058000D01*
X289699Y2054000D01*
X290000Y2050000D01*
X289699Y2045999D01*
X289000Y2041999D01*
X287800Y2038099D01*
X286199Y2034400D01*
X284099Y2030999D01*
X281599Y2027800D01*
X278699Y2024899D01*
X275500Y2022399D01*
X272100Y2020300D01*
X268400Y2018699D01*
X264499Y2017500D01*
X260500Y2016700D01*
X256599Y2016500D01*
G37*
G36*
X160000Y2116500D02*
G01*
X160000Y2183499D01*
X290000Y2183499D01*
X290000Y2116500D01*
G37*
G36*
X193400Y2216500D02*
G01*
X189499Y2216700D01*
X185500Y2217500D01*
X181599Y2218699D01*
X177899Y2220300D01*
X174499Y2222399D01*
X171300Y2224899D01*
X168400Y2227800D01*
X165900Y2230999D01*
X163800Y2234400D01*
X162199Y2238099D01*
X160999Y2241999D01*
X160300Y2245999D01*
X160000Y2250000D01*
X160300Y2254000D01*
X160999Y2258000D01*
X162199Y2261900D01*
X163800Y2265599D01*
X165900Y2269000D01*
X168400Y2272199D01*
X171300Y2275100D01*
X174499Y2277600D01*
X177899Y2279699D01*
X181599Y2281300D01*
X185500Y2282500D01*
X189499Y2283200D01*
X193400Y2283499D01*
X256599Y2283499D01*
X260500Y2283200D01*
X264499Y2282500D01*
X268400Y2281300D01*
X272100Y2279699D01*
X275500Y2277600D01*
X278699Y2275100D01*
X281599Y2272199D01*
X284099Y2269000D01*
X286199Y2265599D01*
X287800Y2261900D01*
X289000Y2258000D01*
X289699Y2254000D01*
X290000Y2250000D01*
X289699Y2245999D01*
X289000Y2241999D01*
X287800Y2238099D01*
X286199Y2234400D01*
X284099Y2230999D01*
X281599Y2227800D01*
X278699Y2224899D01*
X275500Y2222399D01*
X272100Y2220300D01*
X268400Y2218699D01*
X264499Y2217500D01*
X260500Y2216700D01*
X256599Y2216500D01*
G37*
G36*
X193400Y2316500D02*
G01*
X189499Y2316700D01*
X185500Y2317500D01*
X181599Y2318699D01*
X177899Y2320300D01*
X174499Y2322399D01*
X171300Y2324899D01*
X168400Y2327800D01*
X165900Y2330999D01*
X163800Y2334400D01*
X162199Y2338099D01*
X160999Y2341999D01*
X160300Y2345999D01*
X160000Y2350000D01*
X160300Y2354000D01*
X160999Y2358000D01*
X162199Y2361900D01*
X163800Y2365599D01*
X165900Y2369000D01*
X168400Y2372199D01*
X171300Y2375100D01*
X174499Y2377600D01*
X177899Y2379699D01*
X181599Y2381300D01*
X185500Y2382500D01*
X189499Y2383200D01*
X193400Y2383499D01*
X256599Y2383499D01*
X260500Y2383200D01*
X264499Y2382500D01*
X268400Y2381300D01*
X272100Y2379699D01*
X275500Y2377600D01*
X278699Y2375100D01*
X281599Y2372199D01*
X284099Y2369000D01*
X286199Y2365599D01*
X287800Y2361900D01*
X289000Y2358000D01*
X289699Y2354000D01*
X290000Y2350000D01*
X289699Y2345999D01*
X289000Y2341999D01*
X287800Y2338099D01*
X286199Y2334400D01*
X284099Y2330999D01*
X281599Y2327800D01*
X278699Y2324899D01*
X275500Y2322399D01*
X272100Y2320300D01*
X268400Y2318699D01*
X264499Y2317500D01*
X260500Y2316700D01*
X256599Y2316500D01*
G37*
G36*
X600000Y385000D02*
G01*
X595999Y385300D01*
X591999Y385999D01*
X588099Y387199D01*
X584400Y388800D01*
X580999Y390900D01*
X577800Y393400D01*
X574899Y396300D01*
X572399Y399499D01*
X570300Y402899D01*
X568699Y406599D01*
X567500Y410500D01*
X566700Y414499D01*
X566500Y418400D01*
X566500Y481599D01*
X566700Y485500D01*
X567500Y489499D01*
X568699Y493400D01*
X570300Y497100D01*
X572399Y500500D01*
X574899Y503699D01*
X577800Y506599D01*
X580999Y509099D01*
X584400Y511199D01*
X588099Y512800D01*
X591999Y514000D01*
X595999Y514699D01*
X600000Y515000D01*
X604000Y514699D01*
X608000Y514000D01*
X611900Y512800D01*
X615599Y511199D01*
X619000Y509099D01*
X622199Y506599D01*
X625100Y503699D01*
X627600Y500500D01*
X629699Y497100D01*
X631300Y493400D01*
X632500Y489499D01*
X633299Y485500D01*
X633499Y481599D01*
X633499Y418400D01*
X633299Y414499D01*
X632500Y410500D01*
X631300Y406599D01*
X629699Y402899D01*
X627600Y399499D01*
X625100Y396300D01*
X622199Y393400D01*
X619000Y390900D01*
X615599Y388800D01*
X611900Y387199D01*
X608000Y385999D01*
X604000Y385300D01*
G37*
G36*
X500000Y385000D02*
G01*
X495999Y385300D01*
X491999Y385999D01*
X488099Y387199D01*
X484400Y388800D01*
X480999Y390900D01*
X477800Y393400D01*
X474899Y396300D01*
X472399Y399499D01*
X470300Y402899D01*
X468699Y406599D01*
X467500Y410500D01*
X466700Y414499D01*
X466500Y418400D01*
X466500Y481599D01*
X466700Y485500D01*
X467500Y489499D01*
X468699Y493400D01*
X470300Y497100D01*
X472399Y500500D01*
X474899Y503699D01*
X477800Y506599D01*
X480999Y509099D01*
X484400Y511199D01*
X488099Y512800D01*
X491999Y514000D01*
X495999Y514699D01*
X500000Y515000D01*
X504000Y514699D01*
X508000Y514000D01*
X511900Y512800D01*
X515599Y511199D01*
X519000Y509099D01*
X522199Y506599D01*
X525100Y503699D01*
X527600Y500500D01*
X529699Y497100D01*
X531300Y493400D01*
X532500Y489499D01*
X533299Y485500D01*
X533499Y481599D01*
X533499Y418400D01*
X533299Y414499D01*
X532500Y410500D01*
X531300Y406599D01*
X529699Y402899D01*
X527600Y399499D01*
X525100Y396300D01*
X522199Y393400D01*
X519000Y390900D01*
X515599Y388800D01*
X511900Y387199D01*
X508000Y385999D01*
X504000Y385300D01*
G37*
G36*
X700000Y385000D02*
G01*
X695999Y385300D01*
X691999Y385999D01*
X688099Y387199D01*
X684400Y388800D01*
X680999Y390900D01*
X677800Y393400D01*
X674899Y396300D01*
X672399Y399499D01*
X670300Y402899D01*
X668699Y406599D01*
X667500Y410500D01*
X666700Y414499D01*
X666500Y418400D01*
X666500Y481599D01*
X666700Y485500D01*
X667500Y489499D01*
X668699Y493400D01*
X670300Y497100D01*
X672399Y500500D01*
X674899Y503699D01*
X677800Y506599D01*
X680999Y509099D01*
X684400Y511199D01*
X688099Y512800D01*
X691999Y514000D01*
X695999Y514699D01*
X700000Y515000D01*
X704000Y514699D01*
X708000Y514000D01*
X711900Y512800D01*
X715599Y511199D01*
X719000Y509099D01*
X722199Y506599D01*
X725100Y503699D01*
X727600Y500500D01*
X729699Y497100D01*
X731300Y493400D01*
X732500Y489499D01*
X733299Y485500D01*
X733499Y481599D01*
X733499Y418400D01*
X733299Y414499D01*
X732500Y410500D01*
X731300Y406599D01*
X729699Y402899D01*
X727600Y399499D01*
X725100Y396300D01*
X722199Y393400D01*
X719000Y390900D01*
X715599Y388800D01*
X711900Y387199D01*
X708000Y385999D01*
X704000Y385300D01*
G37*
M02*
